<svg xmlns="http://www.w3.org/2000/svg" xmlns:xlink="http://www.w3.org/1999/xlink" viewBox="0 0 500 500"><defs><clipPath id="freepik--clip-path--inject-3"><path d="M55,304.28v-35.8s4.45-14.39,11.28-15.88l6.82-1.48,54.24.23V139.86H25.87V305.53Z" style="fill:none"></path></clipPath><clipPath id="freepik--clip-path-2--inject-3"><path d="M245,295.85l-42.13-4.11.76,2.28s5,43.85,9.15,64.82,7.25,29.74,7.25,29.74a44,44,0,0,0,1.52,13.35c1.91,6.1,2.29,21,3.81,28.6s.77,11.82.77,11.82-4.2,4.57-3.82,5.71a10.13,10.13,0,0,1,.38,2.67s2.29,6.1,8.39,6.1,11.44-4.95,11.44-4.95l1.52-126.46,1-.07.95.07,1.53,126.46s5.34,4.95,11.44,4.95,8.38-6.1,8.38-6.1a9.88,9.88,0,0,1,.39-2.67c.38-1.14-3.82-5.71-3.82-5.71s-.76-4.2.77-11.82,1.9-22.5,3.81-28.6A44,44,0,0,0,270,388.58s3.05-8.77,7.25-29.74S286.4,294,286.4,294l.76-2.28Z" style="fill:#263238;stroke:#263238;stroke-linecap:round;stroke-linejoin:round"></path></clipPath><clipPath id="freepik--clip-path-3--inject-3"><path d="M312,220.62s79.23,26.52,89.15,10.8c5.35-8.49-16.45-22.56-30.22-27.15s-52-22.66-52-22.66" style="fill:#FEBB58;stroke:#263238;stroke-linecap:round;stroke-linejoin:round"></path></clipPath><clipPath id="freepik--clip-path-4--inject-3"><path d="M319.23,208.9,297.07,309.28l-33.63,8.41,2.8-74.14,5.09-66.49,2-12.49s45.35,15.54,48.66,17.84,2,15,2,15" style="fill:#FEBB58;stroke:#263238;stroke-linecap:round;stroke-linejoin:round"></path></clipPath><clipPath id="freepik--clip-path-5--inject-3"><path d="M277.7,163.81a27,27,0,0,1,2.81,10.95c0,5.61.25,19.37,1.52,25.74s5.35,13.75,4.08,13.5-2.8-3.57-6.11-7.39-4.33-9.94-6.12-8.66-5.09,12.23-5.09,12.23.51-22.93,1.27-31.59S272.61,158.46,277.7,163.81Z" style="fill:#FEBB58;stroke:#263238;stroke-linecap:round;stroke-linejoin:round"></path></clipPath><clipPath id="freepik--clip-path-6--inject-3"><path d="M175.05,186s-31.72,52.77-36.66,63.69-11.7,21-9.88,25.47,7,7.8,17.16,7.28,42.64-56.93,42.64-56.93Z" style="fill:#FEBB58;stroke:#263238;stroke-linecap:round;stroke-linejoin:round"></path></clipPath><clipPath id="freepik--clip-path-7--inject-3"><path d="M178.84,208.9,201,309.28l33.62,8.41-2.8-74.14-5.09-66.49-2-12.49S179.35,180.11,176,182.41s-2,15-2,15" style="fill:#FEBB58;stroke:#263238;stroke-linecap:round;stroke-linejoin:round"></path></clipPath><clipPath id="freepik--clip-path-8--inject-3"><path d="M220.37,163.81a27.05,27.05,0,0,0-2.8,10.95c0,5.61-.26,19.37-1.53,25.74S210.69,214.25,212,214s2.8-3.57,6.11-7.39,4.34-9.94,6.12-8.66,5.09,12.23,5.09,12.23-.51-22.93-1.27-31.59S225.46,158.46,220.37,163.81Z" style="fill:#FEBB58;stroke:#263238;stroke-linecap:round;stroke-linejoin:round"></path></clipPath><clipPath id="freepik--clip-path-9--inject-3"><path d="M295.54,93c-4.58-9.51-20.78-24.3-37.34-25-14.16-.61-19,4.72-20.15,6.27-.62-.45-10.12-7-26.21,1a.5.5,0,0,0,.23.94.44.44,0,0,0,.22-.05c11.85-5.93,20.11-3.57,23.48-2-2.16-.37-6.06-.51-11.73,1.23-9.16,2.82-19,12.33-21.48,28.88s5.28,30.64,8.1,33.46,3.17,8.81,3.17,8.81l-.71-18.32s-.35-1.41,3.88-4.22c3.48-2.33,18.71-17.83,23.93-23.19.94,5,3.5,14.8,9.87,21.42a.51.51,0,0,0,.36.15.47.47,0,0,0,.35-.14.49.49,0,0,0,0-.7c-6.51-6.78-8.93-17-9.73-21.61l.92-.94s4.22,11.62,11.27,17.61,16.2,10.92,30.64,6.34,19.72-11.27,19.72-11.27S300.12,102.53,295.54,93Z" style="fill:#263238"></path></clipPath><clipPath id="freepik--clip-path-10--inject-3"><path d="M381.17,232.57c-2-.51-43.1-21.63-47.94-24.69s-16.31-9.93-16.31-13.5,9.94-18.09,9.94-18.09,2.55-3.82,6.62-1.53,42.09,26.47,51.77,31.57,17.07,8.92,17.58,18.85-7.9,11.72-13.5,11" style="fill:#FEBB58;stroke:#263238;stroke-linecap:round;stroke-linejoin:round"></path></clipPath><clipPath id="freepik--clip-path-11--inject-3"><path d="M147,263.69A13.7,13.7,0,0,1,157.89,266c5.72,3.9,19.76,12,31.46,16.12s13.51,4.42,12,11.7-6.76,17.68-11.69,19-15.08-6.24-30.68-14.56-29.64-13.26-31.2-19.5,5.2-16.89,5.2-16.89" style="fill:#FEBB58;stroke:#263238;stroke-linecap:round;stroke-linejoin:round"></path></clipPath></defs><g id="freepik--Character--inject-3"><ellipse cx="244" cy="467.67" rx="43.67" ry="18" style="opacity:0.37"></ellipse><path d="M213.43,145s-1.47-6.94-6.31-6.94-6.11,5.35-3.06,11.46,11.72,9.94,12.23,6.37S213.43,145,213.43,145Z" style="fill:#fff;stroke:#263238;stroke-linecap:round;stroke-linejoin:round"></path><path d="M289.2,117.32s2.11,7.05,0,13.74a34.5,34.5,0,0,1-5.29,10.57V121.55Z" style="fill:#263238;stroke:#263238;stroke-linecap:round;stroke-linejoin:round"></path><path d="M225,448.45s-7.62,11.82-14.87,17.54-6.1,8.38-.76,9.53,13.34-.38,18.3-5.34a47.87,47.87,0,0,0,7.63-9.91l-.2,2.76a.33.33,0,0,0,.55.26l5.75-5.31a15.92,15.92,0,0,0,.38-9.92C240.26,442.35,231.11,441.58,225,448.45Z" style="fill:#fff;stroke:#263238;stroke-linecap:round;stroke-linejoin:round"></path><path d="M215.77,473.59c-6.75.36-9.49-1.11-10.56-2.07-.68,2.08,1,3.32,4.17,4,5.34,1.14,13.34-.38,18.3-5.34a47.87,47.87,0,0,0,7.63-9.91l-.2,2.76a.33.33,0,0,0,.55.26l5.75-5.31a14.91,14.91,0,0,0,.94-6.35c-2.21,2.13-6,5.81-8.63,8.43C229.82,464,225.66,473.07,215.77,473.59Z" style="fill:#fff;stroke:#263238;stroke-linecap:round;stroke-linejoin:round"></path><path d="M265.24,448.45s7.63,11.82,14.87,17.54,6.1,8.38.77,9.53-13.35-.38-18.31-5.34a48,48,0,0,1-7.62-9.91l.19,2.76a.33.33,0,0,1-.55.26L248.85,458a15.83,15.83,0,0,1-.38-9.92C250,442.35,259.14,441.58,265.24,448.45Z" style="fill:#fff;stroke:#263238;stroke-linecap:round;stroke-linejoin:round"></path><path d="M274.31,473.85c-8.85-2.6-12.49-8.33-15.09-11.71-2.29-3-9.61-8.65-11.34-10a14.63,14.63,0,0,0,1,5.82l5.74,5.31a.33.33,0,0,0,.55-.26l-.19-2.76a48,48,0,0,0,7.62,9.91c5,5,13,6.48,18.31,5.34,3.38-.73,5.06-2.07,4-4.4A10,10,0,0,1,274.31,473.85Z" style="fill:#fff;stroke:#263238;stroke-linecap:round;stroke-linejoin:round"></path><path d="M245,295.85l-42.13-4.11.76,2.28s5,43.85,9.15,64.82,7.25,29.74,7.25,29.74a44,44,0,0,0,1.52,13.35c1.91,6.1,2.29,21,3.81,28.6s.77,11.82.77,11.82-4.2,4.57-3.82,5.71a10.13,10.13,0,0,1,.38,2.67s2.29,6.1,8.39,6.1,11.44-4.95,11.44-4.95l1.52-126.46,1-.07.95.07,1.53,126.46s5.34,4.95,11.44,4.95,8.38-6.1,8.38-6.1a9.88,9.88,0,0,1,.39-2.67c.38-1.14-3.82-5.71-3.82-5.71s-.76-4.2.77-11.82,1.9-22.5,3.81-28.6A44,44,0,0,0,270,388.58s3.05-8.77,7.25-29.74S286.4,294,286.4,294l.76-2.28Z" style="fill:#263238"></path><g style="clip-path:url(#freepik--clip-path-2--inject-3)"><path d="M263.16,407c-5.14,8.82-11.67,19.25-17.3,25.88" style="fill:none;stroke:#7d7d7d;stroke-linecap:round;stroke-linejoin:round"></path><path d="M272.17,390.78s-2.08,4-5.29,9.72" style="fill:none;stroke:#7d7d7d;stroke-linecap:round;stroke-linejoin:round"></path><path d="M276.63,399.28s-9.72,27.12-31.17,40.08" style="fill:none;stroke:#7d7d7d;stroke-linecap:round;stroke-linejoin:round"></path><path d="M255.17,402.52s-8.5,17-9.71,19" style="fill:none;stroke:#7d7d7d;stroke-linecap:round;stroke-linejoin:round"></path><path d="M215.09,389.57s13,24.69,30.37,27.12" style="fill:none;stroke:#7d7d7d;stroke-linecap:round;stroke-linejoin:round"></path><path d="M219.55,415.07s15,9.31,26.31,10.93" style="fill:none;stroke:#7d7d7d;stroke-linecap:round;stroke-linejoin:round"></path><path d="M235,446.71a26,26,0,0,0,10.49,1.55" style="fill:none;stroke:#7d7d7d;stroke-linecap:round;stroke-linejoin:round"></path><path d="M226.16,442.35a37.41,37.41,0,0,0,4.44,2.54" style="fill:none;stroke:#7d7d7d;stroke-linecap:round;stroke-linejoin:round"></path><path d="M235.74,437.33a16.9,16.9,0,0,0,9.31,4.86" style="fill:none;stroke:#7d7d7d;stroke-linecap:round;stroke-linejoin:round"></path><path d="M268.53,439s-9.31,8.1-14.17,10.12" style="fill:none;stroke:#7d7d7d;stroke-linecap:round;stroke-linejoin:round"></path></g><path d="M245,295.85l-42.13-4.11.76,2.28s5,43.85,9.15,64.82,7.25,29.74,7.25,29.74a44,44,0,0,0,1.52,13.35c1.91,6.1,2.29,21,3.81,28.6s.77,11.82.77,11.82-4.2,4.57-3.82,5.71a10.13,10.13,0,0,1,.38,2.67s2.29,6.1,8.39,6.1,11.44-4.95,11.44-4.95l1.52-126.46,1-.07.95.07,1.53,126.46s5.34,4.95,11.44,4.95,8.38-6.1,8.38-6.1a9.88,9.88,0,0,1,.39-2.67c.38-1.14-3.82-5.71-3.82-5.71s-.76-4.2.77-11.82,1.9-22.5,3.81-28.6A44,44,0,0,0,270,388.58s3.05-8.77,7.25-29.74S286.4,294,286.4,294l.76-2.28Z" style="fill:none;stroke:#263238;stroke-linecap:round;stroke-linejoin:round"></path><path d="M276.49,166.68s-18.31-3.44-29.36-3.44-29,6.1-29,6.1L230,299s6.86,3,19.06,3,23.64-5.72,23.64-5.72Z" style="fill:#fff;stroke:#263238;stroke-linecap:round;stroke-linejoin:round"></path><ellipse cx="249.92" cy="190.05" rx="23.95" ry="23.61" style="fill:#fff;stroke:#263238;stroke-linecap:round;stroke-linejoin:round"></ellipse><ellipse cx="249.92" cy="190.05" rx="18.09" ry="17.83" style="fill:#fff;stroke:#263238;stroke-linecap:round;stroke-linejoin:round"></ellipse><path d="M220.62,174.71s-2.09,43.3,26.6,51.12,41.21-35.47,37.56-48.51S231.05,157,220.62,174.71Z" style="opacity:0.30000000000000004"></path><ellipse cx="249.92" cy="178.99" rx="22.26" ry="17.83" style="fill:#263238;stroke:#263238;stroke-linecap:round;stroke-linejoin:round"></ellipse><path d="M312,220.62s79.23,26.52,89.15,10.8c5.35-8.49-16.45-22.56-30.22-27.15s-52-22.66-52-22.66" style="fill:#FEBB58"></path><g style="clip-path:url(#freepik--clip-path-3--inject-3)"><path d="M378.56,225.58c-11.17,0-54.6-10.15-65.18-12.66l-1.36,7.7s79.23,26.52,89.15,10.8a5.37,5.37,0,0,0,.66-1.55A74,74,0,0,0,378.56,225.58Z" style="opacity:0.30000000000000004"></path><polyline points="326.08 206.07 316.33 222.69 326.08 213.46" style="fill:none;stroke:#263238;stroke-linecap:round;stroke-linejoin:round"></polyline></g><path d="M312,220.62s79.23,26.52,89.15,10.8c5.35-8.49-16.45-22.56-30.22-27.15s-52-22.66-52-22.66" style="fill:none;stroke:#263238;stroke-linecap:round;stroke-linejoin:round"></path><path d="M319.23,208.9,297.07,309.28l-33.63,8.41,2.8-74.14,5.09-66.49,2-12.49s45.35,15.54,48.66,17.84,2,15,2,15" style="fill:#FEBB58"></path><g style="clip-path:url(#freepik--clip-path-4--inject-3)"><path d="M316.36,221.9l-36.48,69.31s7.55-28.33,7.08-31.63c-.27-1.92-12,5.05-21.75,11.25l-1.77,46.86,33.63-8.41Z" style="opacity:0.30000000000000004"></path><path d="M280.35,168s11.81,8.49,10.39,27.38-5.67,16.06-5.67,16.06,2.84,4.24,0,4.72-8-8.5-9-6.14-6.61,5.19-6.61,5.19l1.84-38.13S272.8,167,280.35,168Z" style="opacity:0.30000000000000004"></path><path d="M290.74,181.81s4,10,1.58,24.26" style="fill:none;stroke:#263238;stroke-linecap:round;stroke-linejoin:round"></path><path d="M295.23,197.11s1.84,3.95-4.49,19.78" style="fill:none;stroke:#263238;stroke-linecap:round;stroke-linejoin:round"></path><path d="M303.67,256.45s-14.51,28.22-30.07,40.09" style="fill:none;stroke:#263238;stroke-linecap:round;stroke-linejoin:round"></path><path d="M286.26,271.22S284.41,274.39,276,281" style="fill:none;stroke:#263238;stroke-linecap:round;stroke-linejoin:round"></path></g><path d="M319.23,208.9,297.07,309.28l-33.63,8.41,2.8-74.14,5.09-66.49,2-12.49s45.35,15.54,48.66,17.84,2,15,2,15" style="fill:none;stroke:#263238;stroke-linecap:round;stroke-linejoin:round"></path><path d="M277.7,163.81a27,27,0,0,1,2.81,10.95c0,5.61.25,19.37,1.52,25.74s5.35,13.75,4.08,13.5-2.8-3.57-6.11-7.39-4.33-9.94-6.12-8.66-5.09,12.23-5.09,12.23.51-22.93,1.27-31.59S272.61,158.46,277.7,163.81Z" style="fill:#FEBB58"></path><g style="clip-path:url(#freepik--clip-path-5--inject-3)"><path d="M277.7,163.81a27,27,0,0,1,2.81,10.95c0,5.61.25,19.37,1.52,25.74s5.35,13.75,4.08,13.5-2.8-3.57-6.11-7.39-4.33-9.94-6.12-8.66-5.09,12.23-5.09,12.23.51-22.93,1.27-31.59S272.61,158.46,277.7,163.81Z" style="opacity:0.30000000000000004"></path></g><path d="M277.7,163.81a27,27,0,0,1,2.81,10.95c0,5.61.25,19.37,1.52,25.74s5.35,13.75,4.08,13.5-2.8-3.57-6.11-7.39-4.33-9.94-6.12-8.66-5.09,12.23-5.09,12.23.51-22.93,1.27-31.59S272.61,158.46,277.7,163.81Z" style="fill:none;stroke:#263238;stroke-linecap:round;stroke-linejoin:round"></path><path d="M175.05,186s-31.72,52.77-36.66,63.69-11.7,21-9.88,25.47,7,7.8,17.16,7.28,42.64-56.93,42.64-56.93Z" style="fill:#FEBB58"></path><g style="clip-path:url(#freepik--clip-path-6--inject-3)"><path d="M161.82,266.63c9.39-12.67,19.63-29.55,24.13-37.14l-5.23-13.83L150,272.32Z" style="opacity:0.30000000000000004"></path><polyline points="170.2 209.5 183.92 233.5 169.15 221.64" style="fill:none;stroke:#263238;stroke-linecap:round;stroke-linejoin:round"></polyline><path d="M145.41,253s10,5,14.24,14.51" style="fill:none;stroke:#263238;stroke-linecap:round;stroke-linejoin:round"></path><path d="M154.11,252.23s4.49,5.28,6.07,11.08" style="fill:none;stroke:#263238;stroke-linecap:round;stroke-linejoin:round"></path></g><path d="M175.05,186s-31.72,52.77-36.66,63.69-11.7,21-9.88,25.47,7,7.8,17.16,7.28,42.64-56.93,42.64-56.93Z" style="fill:none;stroke:#263238;stroke-linecap:round;stroke-linejoin:round"></path><path d="M178.84,208.9,201,309.28l33.62,8.41-2.8-74.14-5.09-66.49-2-12.49S179.35,180.11,176,182.41s-2,15-2,15" style="fill:#FEBB58"></path><g style="clip-path:url(#freepik--clip-path-7--inject-3)"><polygon points="201 309.28 234.63 317.69 233.23 280.53 189.35 256.49 201 309.28" style="opacity:0.30000000000000004"></polygon><path d="M195,258.83s9,11.87,19,18.72" style="fill:none;stroke:#263238;stroke-linecap:round;stroke-linejoin:round"></path><path d="M217.55,202s-6.13,12.28-2.83,12.75,6.21-12.45,10.39-8.5l4.17,4-3.7-23.32A33.33,33.33,0,0,0,217.55,202Z" style="opacity:0.30000000000000004"></path><path d="M215.57,169.41s-6.6,19-4.75,35.08" style="fill:none;stroke:#263238;stroke-linecap:round;stroke-linejoin:round"></path><path d="M207.92,180.22s-3.17,16.62.26,25.85" style="fill:none;stroke:#263238;stroke-linecap:round;stroke-linejoin:round"></path></g><path d="M178.84,208.9,201,309.28l33.62,8.41-2.8-74.14-5.09-66.49-2-12.49S179.35,180.11,176,182.41s-2,15-2,15" style="fill:none;stroke:#263238;stroke-linecap:round;stroke-linejoin:round"></path><path d="M220.37,163.81a27.05,27.05,0,0,0-2.8,10.95c0,5.61-.26,19.37-1.53,25.74S210.69,214.25,212,214s2.8-3.57,6.11-7.39,4.34-9.94,6.12-8.66,5.09,12.23,5.09,12.23-.51-22.93-1.27-31.59S225.46,158.46,220.37,163.81Z" style="fill:#FEBB58"></path><g style="clip-path:url(#freepik--clip-path-8--inject-3)"><path d="M222.18,174.71s-3.05,10.14-.52,16.69,7.3,16.17,7.3,16.17l-1-29" style="opacity:0.30000000000000004"></path></g><path d="M220.37,163.81a27.05,27.05,0,0,0-2.8,10.95c0,5.61-.26,19.37-1.53,25.74S210.69,214.25,212,214s2.8-3.57,6.11-7.39,4.34-9.94,6.12-8.66,5.09,12.23,5.09,12.23-.51-22.93-1.27-31.59S225.46,158.46,220.37,163.81Z" style="fill:none;stroke:#263238;stroke-linecap:round;stroke-linejoin:round"></path><path d="M212.77,126.83s0,21.84,2.82,34.52,8.45,23.24,22.89,29.23,31.7-1.76,39.1-10.92,6.69-34.86,6.69-40.5.35-23.6.35-23.6S281.8,107.11,269.47,99s-24.65-12-40.15-2.47S212.77,126.83,212.77,126.83Z" style="fill:#fff;stroke:#263238;stroke-linecap:round;stroke-linejoin:round"></path><line x1="262.5" y1="149.72" x2="270.45" y2="149.47" style="fill:none;stroke:#263238;stroke-linecap:round;stroke-linejoin:round"></line><path d="M256.54,169.73s1.17-4.18,7.35-5.18" style="fill:none;stroke:#263238;stroke-linecap:round;stroke-linejoin:round"></path><path d="M250.33,150.46v5.47a5.78,5.78,0,0,1,2.23,4.47c.25,3.23-2.67,4.94-5.43,2.84" style="fill:#fff;stroke:#263238;stroke-linecap:round;stroke-linejoin:round"></path><path d="M233.34,147.35h-.84a2.5,2.5,0,0,1-2.5-2.5h5.84A2.5,2.5,0,0,1,233.34,147.35Z" style="fill:#263238"></path><line x1="227.49" y1="144.68" x2="238.51" y2="144.68" style="fill:none;stroke:#263238;stroke-linecap:round;stroke-linejoin:round"></line><line x1="227.49" y1="146.72" x2="238.51" y2="146.72" style="fill:none;stroke:#263238;stroke-linecap:round;stroke-linejoin:round"></line><path d="M267.56,144.51c0,1.85-.78,3.34-1.75,3.34s-1.75-1.49-1.75-3.34.78-3.33,1.75-3.33S267.56,142.67,267.56,144.51Z" style="fill:#263238"></path><path d="M254.51,134.77s6.62-3.82,23.18-1.53" style="fill:none;stroke:#263238;stroke-linecap:round;stroke-linejoin:round;stroke-width:3px"></path><path d="M242.28,132.73a23.77,23.77,0,0,0-19.36-11.21" style="fill:none;stroke:#263238;stroke-linecap:round;stroke-linejoin:round;stroke-width:3px"></path><path d="M295.54,93c-4.58-9.51-20.78-24.3-37.34-25-14.16-.61-19,4.72-20.15,6.27-.62-.45-10.12-7-26.21,1a.5.5,0,0,0,.23.94.44.44,0,0,0,.22-.05c11.85-5.93,20.11-3.57,23.48-2-2.16-.37-6.06-.51-11.73,1.23-9.16,2.82-19,12.33-21.48,28.88s5.28,30.64,8.1,33.46,3.17,8.81,3.17,8.81l-.71-18.32s-.35-1.41,3.88-4.22c3.48-2.33,18.71-17.83,23.93-23.19.94,5,3.5,14.8,9.87,21.42a.51.51,0,0,0,.36.15.47.47,0,0,0,.35-.14.49.49,0,0,0,0-.7c-6.51-6.78-8.93-17-9.73-21.61l.92-.94s4.22,11.62,11.27,17.61,16.2,10.92,30.64,6.34,19.72-11.27,19.72-11.27S300.12,102.53,295.54,93Z" style="fill:#263238"></path><g style="clip-path:url(#freepik--clip-path-9--inject-3)"><path d="M279.21,110.6c23.88,3.3,28.29-1.6,28.29-1.6" style="fill:none;stroke:#7d7d7d;stroke-linecap:round;stroke-linejoin:round"></path><path d="M244,84.5s7.56,17,25.62,23.75" style="fill:none;stroke:#7d7d7d;stroke-linecap:round;stroke-linejoin:round"></path><path d="M243.5,78.5s29,13.48,40.5,14,13-2,13-2" style="fill:none;stroke:#7d7d7d;stroke-linecap:round;stroke-linejoin:round"></path><path d="M238,85.5S216.5,97,210.5,110s-3.5,22-3.5,22" style="fill:none;stroke:#7d7d7d;stroke-linecap:round;stroke-linejoin:round"></path><path d="M210.47,88.88a30.37,30.37,0,0,0-4,3.62" style="fill:none;stroke:#7d7d7d;stroke-linecap:round;stroke-linejoin:round"></path><path d="M236,81.5a42.16,42.16,0,0,0-21.78,4.92" style="fill:none;stroke:#7d7d7d;stroke-linecap:round;stroke-linejoin:round"></path></g><path d="M245.14,140.33a37.68,37.68,0,0,0-30.83,0s-2.93.29-2.93,2.64,2.05,2.05,2.05,2.05.4,11.11,5,14.39c4.11,2.94,13.22,3.82,17.91,2.06s7.64-5,8.52-7.93S245.14,140.33,245.14,140.33Z" style="fill:none;stroke:#263238;stroke-linecap:round;stroke-linejoin:round;stroke-width:3px"></path><path d="M252.09,140.33a37.66,37.66,0,0,1,30.82,0s2.94.29,2.94,2.64S283.8,145,283.8,145s-.4,11.11-5,14.39c-4.11,2.94-13.21,3.82-17.91,2.06s-7.63-5-8.51-7.93S252.09,140.33,252.09,140.33Z" style="fill:none;stroke:#263238;stroke-linecap:round;stroke-linejoin:round;stroke-width:3px"></path><path d="M245.14,140.33a9.38,9.38,0,0,1,7,0" style="fill:none;stroke:#263238;stroke-linecap:round;stroke-linejoin:round;stroke-width:3px"></path><line x1="246.02" y1="144.73" x2="251.01" y2="144.73" style="fill:none;stroke:#263238;stroke-linecap:round;stroke-linejoin:round;stroke-width:3px"></line><path d="M282,145s1.48-6.94,6.32-6.94,6.11,5.35,3.05,11.46-11.72,9.94-12.22,6.37S282,145,282,145Z" style="fill:none;stroke:#263238;stroke-linecap:round;stroke-linejoin:round"></path><path d="M302.66,134.51s-13.25.26-21.15-.51-2,6,1.4,6.33a81.62,81.62,0,0,0,12.36.55,21.91,21.91,0,0,1,8.91,1.53S308.52,137.57,302.66,134.51Z" style="fill:#fff;stroke:#263238;stroke-linecap:round;stroke-linejoin:round"></path><path d="M294.5,159a59.12,59.12,0,0,1-6.62-9.94c-2.55-5.09-3.31-7.38,1.53-6.88s6.88,5.1,8.15,8.92,4.33,3.82,4.33,3.82l4.33-12.48,8.67,7.64L307,176.8s-10.7-5.35-12.23-7.64S294.76,161,294.5,159Z" style="fill:#fff;stroke:#263238;stroke-linecap:round;stroke-linejoin:round"></path><path d="M318.45,142.66s-.76-4.07-4.33-4.84-9.68-5.09-11.72-4.33-5.86,13-5.86,15,2.29,4.08,3.06,4.08S307,140.88,307,140.88Z" style="fill:#fff;stroke:#263238;stroke-linecap:round;stroke-linejoin:round"></path><path d="M318.71,145.72s1.27-2.8,0-4.07-9.43-3.83-12.23-4.34-3.31.51-4.84,4.34-4.84,9.17-3.31,10.44,3.56,2.8,3.56,2.8l5.35-10.95Z" style="fill:#fff;stroke:#263238;stroke-linecap:round;stroke-linejoin:round"></path><path d="M306.22,158.21s-5.09-2-5.86-3.57,4.33-14.27,5.1-14.52,4.07.76,5.09,1.27,8.92,1.78,9.43,5.1-4.84,22.16-4.33,24.2,4.59,4.33,4.59,4.33l-6.12,10.44s-9.68-8.4-13.25-10.19,1.28-7.64,2.55-10.7S306.22,158.21,306.22,158.21Z" style="fill:#fff;stroke:#263238;stroke-linecap:round;stroke-linejoin:round"></path><line x1="306.22" y1="158.21" x2="309.79" y2="151.58" style="fill:none;stroke:#263238;stroke-linecap:round;stroke-linejoin:round"></line><line x1="307.24" y1="151.33" x2="312.08" y2="151.84" style="fill:none;stroke:#263238;stroke-linecap:round;stroke-linejoin:round"></line><polygon points="318.71 172.73 308.52 183.17 318.2 191.83 327.62 177.82 318.71 172.73" style="fill:#FEBB58;stroke:#263238;stroke-linecap:round;stroke-linejoin:round"></polygon><path d="M381.17,232.57c-2-.51-43.1-21.63-47.94-24.69s-16.31-9.93-16.31-13.5,9.94-18.09,9.94-18.09,2.55-3.82,6.62-1.53,42.09,26.47,51.77,31.57,17.07,8.92,17.58,18.85-7.9,11.72-13.5,11" style="fill:#FEBB58"></path><g style="clip-path:url(#freepik--clip-path-10--inject-3)"><path d="M372.69,217.58C359,214.92,335,207.27,329.32,205.42c1.49,1,2.86,1.8,3.91,2.46,4.84,3.06,45.9,24.18,47.94,24.69l8.16,3.57c5.6.76,14-1,13.5-11s-7.9-13.76-17.58-18.85c-5.74-3-21.46-12.76-34.14-20.66,15.06,10.72,36.62,26.5,37.18,29.31C389.16,219.31,388.29,220.61,372.69,217.58Z" style="opacity:0.30000000000000004"></path></g><path d="M381.17,232.57c-2-.51-43.1-21.63-47.94-24.69s-16.31-9.93-16.31-13.5,9.94-18.09,9.94-18.09,2.55-3.82,6.62-1.53,42.09,26.47,51.77,31.57,17.07,8.92,17.58,18.85-7.9,11.72-13.5,11" style="fill:none;stroke:#263238;stroke-linecap:round;stroke-linejoin:round"></path><polygon points="303.42 225.21 276.42 230.56 277.44 237.69 292.47 240.49 302.4 231.58 303.42 225.21" style="fill:none;stroke:#263238;stroke-linecap:round;stroke-linejoin:round"></polygon><path d="M147,263.69A13.7,13.7,0,0,1,157.89,266c5.72,3.9,19.76,12,31.46,16.12s13.51,4.42,12,11.7-6.76,17.68-11.69,19-15.08-6.24-30.68-14.56-29.64-13.26-31.2-19.5,5.2-16.89,5.2-16.89" style="fill:#FEBB58"></path><g style="clip-path:url(#freepik--clip-path-11--inject-3)"><path d="M189.35,282.15l-1.36-.5,8.79,5.31s-9.92,0-11.33,7.56,3.3,11.8.47,12.74-40.61-17-40.61-17l1.23,1.76c3.86,1.89,8.06,3.93,12.39,6.24,15.6,8.32,25.74,15.86,30.68,14.56s10.13-11.7,11.69-19S201,286.31,189.35,282.15Z" style="opacity:0.30000000000000004"></path></g><path d="M147,263.69A13.7,13.7,0,0,1,157.89,266c5.72,3.9,19.76,12,31.46,16.12s13.51,4.42,12,11.7-6.76,17.68-11.69,19-15.08-6.24-30.68-14.56-29.64-13.26-31.2-19.5,5.2-16.89,5.2-16.89" style="fill:none;stroke:#263238;stroke-linecap:round;stroke-linejoin:round"></path><path d="M258.5,289.43s5.45,1,9.35,0,4.16,1,2.34,4.42-6.24,4.94-9.09,4.68S253.82,292.29,258.5,289.43Z" style="fill:#fff;stroke:#263238;stroke-linecap:round;stroke-linejoin:round"></path><path d="M210.14,299.05s6.76-1.56,9.36-3.38,23.14-15.6,25.74-15.6,20,13.52,20.27,14.56-4.93,7.54-6.49,8.84-7.8,9.1-9.36,10.66-7.54,4.42-9.36,4.94-4.42-1-3.9-2.86,1-3.38,1-3.38-9.88,4.94-15.08,3.64-17.42-7.54-17.42-7.54Z" style="fill:#fff;stroke:#263238;stroke-linecap:round;stroke-linejoin:round"></path><path d="M237.44,300.09s12.48,10.92,12.22,14" style="fill:#fff;stroke:#263238;stroke-linecap:round;stroke-linejoin:round"></path><line x1="240.82" y1="291.51" x2="255.38" y2="306.85" style="fill:#fff;stroke:#263238;stroke-linecap:round;stroke-linejoin:round"></line><line x1="245.76" y1="284.23" x2="260.84" y2="300.87" style="fill:#fff;stroke:#263238;stroke-linecap:round;stroke-linejoin:round"></line><path d="M237.44,312.83s4.42-1.56,3.9,1" style="fill:#fff;stroke:#263238;stroke-linecap:round;stroke-linejoin:round"></path><path d="M197.92,291.77l14,5.72-7.28,16.38-14-6.76S190.13,297.23,197.92,291.77Z" style="fill:#FEBB58;stroke:#263238;stroke-linecap:round;stroke-linejoin:round"></path></g></svg>