<svg xmlns="http://www.w3.org/2000/svg" viewBox="0 0 500 500"><g id="freepik--Floor--inject-8"><ellipse id="freepik--floor--inject-8" cx="250" cy="345.8" rx="240.14" ry="138.64" style="fill:#f5f5f5"></ellipse></g><g id="freepik--Character--inject-8"><g id="freepik--character--inject-8"><g id="freepik--Bottom--inject-8"><path d="M293.89,192.66l-78.74-.73c-8.36,74-4.7,81.25-4.83,117.52-.06,18.56,6.36,72.24,6.2,86.71,0,.86,3.85,4.86,9.79,4.28s7.66-2.53,7.7-3.14c.16-2.14,2.52-5.14,2.85-7.26,2.17-13.83,4.73-31.64,6.93-45.79a89.44,89.44,0,0,0-.73-32.44l11.61-54.12c1,8.23,1.92,15.46,3.69,23.75l.84,3.91c.41,4.82,7.56,6,10,6.54,6.61,1.38,12.61-.09,18.72-2.95s8.95-6.38,9.22-11.91l-.11-3.2c.15-4.59,0-8.38.27-12.71C299.86,221.54,297.52,200.77,293.89,192.66Z" style="fill:#c8856a"></path><path d="M215.15,188.56S211.48,214,210,236.45a778.49,778.49,0,0,0-.35,83.28c1.45,26.69,4.86,56.41,4.86,56.41s3.6,3.61,13.8,3.45,12.23-3.45,12.23-3.45,6-34.89,6.08-44.28a98.84,98.84,0,0,0-2.33-19.57l10.34-52.52s2.79,21.4,4.52,25.58,8.51,8.49,21.62,5.13,15.32-5.56,16.33-13.45,2.24-41.72,2-56.93-6.54-32.77-6.54-32.77Z" style="fill:#455a64"></path><path d="M286.2,196.63c6.88,20.4,6.43,47.42,6.13,65.29-.15,8.89-.16,17.64-.13,24.44.39-.25.74-.5,1.07-.76,0-6.68,0-15.11.13-23.66.3-17.95.76-45.08-6.18-65.65Z" style="fill:#37474f"></path><path d="M288.82,229.14a8.44,8.44,0,0,1-4.68-1.33c-3.13-2-5.24-6.28-6.27-12.73-2.28-14.29-3.16-20.75-3.17-20.81l1.06-.15c0,.07.89,6.52,3.17,20.79,1,6.13,2.93,10.17,5.79,12,2,1.28,4.46,1.49,7.49.64l.29,1A13.61,13.61,0,0,1,288.82,229.14Z" style="fill:#37474f"></path><path d="M254.61,259.77l-3-31.36s-16.44-2.72-23.92-14.06c0,0,.8,13.36,20,18.8l1.95,25-5.3,54.12Z" style="fill:#37474f"></path><path d="M308.11,393.61c-1.15-5.55-5-8.9-11.31-9s-9.34,7.73-9,11.91Z" style="fill:#263238"></path><path d="M286.27,334.4a4.84,4.84,0,0,1,4.3-.81c.66.23,1,.62-.67,1.41l12,63.29a11.13,11.13,0,0,1-6.08,1.16l-12-63.3A6.64,6.64,0,0,0,286.27,334.4Z" style="fill:#e0e0e0"></path><path d="M284.47,334.74a4.84,4.84,0,0,1,4.3-.81A1.55,1.55,0,0,1,289.9,335l12,63.29a1.55,1.55,0,0,1-.66,1.41,4.82,4.82,0,0,1-4.29.82,1.55,1.55,0,0,1-1.13-1.07l-12-63.3A1.54,1.54,0,0,1,284.47,334.74Z" style="opacity:0.1"></path><path d="M299.05,383.21c.2,2-5.74,3-6.13.91-.94.63-1.66,1-1,3.94s-3.74,3.95-3.19,8.08c1.34,10.12,5.79,7.95,11.41,7.25,2.93-.36,6.27-2.48,7.28-4.85,0,0-.36-4.53-.63-5.6-1.05-4.18-4.9-3.48-5.45-6.36C301.05,385.12,300.58,383.31,299.05,383.21Z" style="fill:#455a64"></path><path d="M288.53,333.32a1.55,1.55,0,0,1,1.18,1,1.53,1.53,0,0,1-.58,1.45,4.82,4.82,0,0,1-4.24,1,1.55,1.55,0,0,1-1.18-1,1.53,1.53,0,0,1,.58-1.45A4.82,4.82,0,0,1,288.53,333.32Z" style="fill:#455a64"></path><path d="M282.42,335a9.4,9.4,0,0,1,8.35-1.59,3,3,0,0,1,2.19,2.09l.58,3.06a3,3,0,0,1-1.27,2.74,9.39,9.39,0,0,1-8.36,1.58,3,3,0,0,1-2.19-2.08l-.58-3.06A3,3,0,0,1,282.42,335Z" style="fill:#e0e0e0"></path><path d="M290.77,333.39a2.6,2.6,0,0,1,.92,4.83,9.39,9.39,0,0,1-8.36,1.58,2.59,2.59,0,0,1-.91-4.82A9.4,9.4,0,0,1,290.77,333.39Z" style="fill:#ebebeb"></path><path d="M267.26,294.45c5.23-4.76,15.36-6.83,22-4.5,3.16,1.11,4.79,3,4.93,5.12l2.59,38.67c.06.91-.81,2-2.61,3.06a24.82,24.82,0,0,1-13.43,2.87c-2.07-.23-3.29-.88-3.59-1.75l-12.47-36.77C264,299.13,264.75,296.73,267.26,294.45Z" style="fill:#455a64"></path><path d="M298.62,310.88V311c0,1.16-1.18,2.95-3.07,4.73a11.11,11.11,0,0,1-.88.78,24.27,24.27,0,0,1-9.7,5.12c-7.16,1.72-15.43,1.57-16.41-.67s-2-4.59-2.81-6.61a153.61,153.61,0,0,1-6.61-22.41c-1.24-6.43-2-10.07-.84-10.47l.84,3.91s5.61,6.94,21.7,3.28c6.44-1.48,10.34-3.7,12.69-5.79h0c.3-.27.56-.54.81-.8,2.58-2.69,2.74-5,2.74-5l.31-3.21c1.36-.16,1.15,1.93,1.09,6.36s-.74,18.87-.3,23.84C298.36,306,298.5,308.54,298.62,310.88Z" style="fill:#37474f"></path><path d="M295.55,315.7a11.11,11.11,0,0,1-.88.78l-.06-.44c-.16-1.22-.29-2.46-.39-3.69-.27-3-.37-6-.34-9,.05-4.56.26-9.12.1-13.68-.08-2.09-.21-4.16-.38-6.24,0-.2-.05-.39-.07-.58h0c.3-.27.56-.54.81-.8,0,.21,0,.43.07.63q.33,3.45.49,6.9c.19,4.35.1,8.68,0,13-.06,3.16,0,6.31.25,9.45C295.27,313.26,295.38,314.47,295.55,315.7Z" style="fill:#263238"></path><path d="M290.9,290.18a1.3,1.3,0,1,0-1.4-1.2A1.3,1.3,0,0,0,290.9,290.18Zm-.07,8.06a1.3,1.3,0,1,0-1.39-1.2A1.29,1.29,0,0,0,290.83,298.24Zm1.22,7.43a1.3,1.3,0,0,0-2.59.19,1.3,1.3,0,1,0,2.59-.19Zm-.05,8.22a1.3,1.3,0,1,0,1.39,1.2A1.29,1.29,0,0,0,292,313.89Z" style="fill:#263238"></path><path d="M290.89,432.11c.59,5.95,1.68,9.87,3.94,13.29s6.29,4.35,10.3,3.16,9.07-4.13,10-9.33.57-8.71-.57-14.21Z" style="fill:#263238"></path><path d="M306.3,390c1.43.39,2.7,8.08,4,16.06,1.38,8.56,3,11.1,4.2,18.11,1.38,8,.92,10.73-1.7,15.72s-12.43,10.16-17.64,3.39c-4.24-5.53-4.48-10.93-4.44-19a169.9,169.9,0,0,0-.83-19.16c-.57-6-2.68-11.63-1.26-12.35.15.88,1.72,7.6,2.82,6.81.49-.12.55-1,.37-2.53a2.69,2.69,0,0,1,.38-2,3.16,3.16,0,0,1,1.82-.9c1.62-.39,3.86-1,5.52-1.2,1-.13.43-.12,1.4-.22s2.78-.44,3.66,0c.53.25.59.76.75,1.32s.31,1.34.51,1.89c.08.22.41.68.64.64.39-.05.46-1.08.4-1.53s0-1.19-.08-1.74S306.52,391.44,306.3,390Z" style="fill:#37474f"></path><path d="M314,421.47c.21,1.15,1.31,8.37-.73,9.85-2.21,1.59-3.7-4.41-3.7-4.41s-5.39-1.41-13,2.29c.45,1.23-.58,5.39-2.74,4.61s-3.16-8.67-3.17-8.79c0,7.73.32,12.93,4.44,18.3,5.21,6.77,15,1.59,17.63-3.39s3.09-7.71,1.71-15.72C314.35,423.41,314.21,422.19,314,421.47Z" style="fill:#455a64"></path><path d="M309,427.45c.15,2.91,2.72,1.81,3-2.3.35-6.17-1.42-12-1.68-19-1.29-8-2.32-16-4-16.06.12,1.39.45,4.37.45,4.37.07.59.19,2.09.19,2.09.76,6,2.62,12.94,2.63,19.13C309.58,421.09,308.87,424.54,309,427.45Z" style="fill:#263238"></path><path d="M297.51,429.08c-.66-2.84-1.62-3.61-2.42-9s-3-14.81-4.39-20.63c-.38-1.81-2.07-6.55-2.08-6.61-1,.54-1.14,3.86-.17,7.46s1.6,5.8,2.27,9.27c1.71,6.87,2.21,14.22,3.32,18.19S298.18,431.92,297.51,429.08Z" style="fill:#263238"></path><path d="M296.86,429.25a.58.58,0,0,0,.22-.08,19.77,19.77,0,0,1,12.79-1.85.62.62,0,1,0,.27-1.2,20.65,20.65,0,0,0-13.68,2,.61.61,0,0,0-.22.84A.62.62,0,0,0,296.86,429.25Z" style="fill:#f0f0f0"></path><path d="M294.94,423.53l.21-.06c.06,0,7.34-3.74,14.91-2.31a.63.63,0,0,0,.73-.49.62.62,0,0,0-.5-.72c-8-1.52-15.43,2.27-15.72,2.42a.63.63,0,0,0-.26.84A.6.6,0,0,0,294.94,423.53Z" style="fill:#f0f0f0"></path><path d="M310.73,416.4a.61.61,0,0,0,.5-.44.62.62,0,0,0-.42-.77c-7.57-2.23-17.25,1.67-17.56,1.84a.62.62,0,0,0-.23.85.63.63,0,0,0,.85.22c.07,0,9.54-3.8,16.59-1.72A.62.62,0,0,0,310.73,416.4Z" style="fill:#f0f0f0"></path><path d="M309.31,411.23a.63.63,0,0,0,.5-.43.61.61,0,0,0-.41-.77c-8.33-2.62-16.6,2.23-16.88,2.42a.62.62,0,0,0,.68,1c.07-.05,8.07-4.7,15.83-2.27A.67.67,0,0,0,309.31,411.23Z" style="fill:#f0f0f0"></path><path d="M308.54,404.89a.6.6,0,0,0,.5-.42.62.62,0,0,0-.39-.78c-7.82-2.57-16.68,2.4-17,2.6a.61.61,0,0,0-.19.85.61.61,0,0,0,.85.19c.07,0,8.68-4.86,15.94-2.47A.69.69,0,0,0,308.54,404.89Z" style="fill:#ebebeb"></path><path d="M185.14,422.16c-.36,0-.91,3.95,1,5.63,2.25,1.94,8.83,5.14,17.55,4s11.15-2.85,14.64-5.76,6.7-6,10.64-6.83c3.66-.8,9.24-2.26,10.41-3.39s1-6.16,1-6.16Z" style="fill:#263238"></path><path d="M237.14,387.86c2.62.14,1.52,6.28,2.59,8.9a57.13,57.13,0,0,1,.53,14.65c-.48,2.58-8,4.16-11.87,5.61-8.58,3.38-16,13.32-26.79,12.59-6.72-.06-14.28-2.25-16-5.37-6.76-13.7,26.63-14.28,29.28-33.81.13-1.19.84-1.8,3.49-1.84,3,0,6.74.68,8.94,3,.89,1.31,0,3.11.74,4.42,1.68.54,2.78-2.42,3.86-3.41C233.74,391.25,238,391.08,237.14,387.86Z" style="fill:#37474f"></path><path d="M217.71,423.75a50.21,50.21,0,0,1,4.63-3.54h0s-10.62,4.17-15.35.93c-3-2.09-1.59-4.62-1.51-5.42s-7.1-4.28-10.06-4.63l-1.23-.06c-.83.45-1.82.86-2.24,1.08-8.83,4.5-8.49,8.28-6.35,12.14,1.72,3.12,7.2,5.56,15.88,5.58C207.16,429.83,213.61,427.11,217.71,423.75Z" style="fill:#455a64"></path><path d="M206.3,413.35c-6.2,2.47-3.56,3.63-1.82,3.88s10.48-4.77,16.85-9.79c6.64-5.24,12.43-10.77,14.9-12.69.92-.72,1.91-1.6,2.79-2.43-.16-1.36-.29-2.6-.41-3.25a1.56,1.56,0,0,0-1.47-1.21L236.8,390A4.71,4.71,0,0,1,235,391a8,8,0,0,0-3.08,1.59,25.22,25.22,0,0,1-2.69,3.22C223.8,402.63,212.5,410.88,206.3,413.35Z" style="fill:#263238"></path><path d="M204.92,416.32a.67.67,0,0,0,.39-.14.61.61,0,0,0,.08-.86c-1.74-2.15-6.78-5-11.33-4.5a.61.61,0,1,0,.12,1.22c4.26-.45,8.88,2.35,10.26,4A.62.62,0,0,0,204.92,416.32Z" style="fill:#f0f0f0"></path><path d="M210.34,413.28a.65.65,0,0,0,.39-.13.62.62,0,0,0,.11-.86c-1.7-2.18-6.66-5.14-11.23-4.76a.62.62,0,0,0-.57.66.61.61,0,0,0,.67.56c4.26-.34,8.82,2.56,10.16,4.29A.62.62,0,0,0,210.34,413.28Z" style="fill:#f0f0f0"></path><path d="M215.34,409.82a.62.62,0,0,0,.39-.14.61.61,0,0,0,.09-.86c-1.74-2.15-6.78-5-11.34-4.5a.62.62,0,0,0-.54.68.6.6,0,0,0,.67.54c4.26-.45,8.88,2.35,10.26,4A.61.61,0,0,0,215.34,409.82Z" style="fill:#f0f0f0"></path><path d="M219.77,406.69a.58.58,0,0,0,.39-.12.62.62,0,0,0,.13-.86c-1.65-2.22-6.58-5.27-11.14-5a.62.62,0,0,0,.08,1.23c4.26-.27,8.76,2.73,10.07,4.48A.62.62,0,0,0,219.77,406.69Z" style="fill:#f0f0f0"></path><path d="M224.53,403a.54.54,0,0,0,.38-.12.6.6,0,0,0,.14-.85c-2.28-3.13-7.63-5.35-12.2-5a.6.6,0,0,0-.57.65.61.61,0,0,0,.65.57c4.12-.28,9.1,1.76,11.13,4.53A.6.6,0,0,0,224.53,403Z" style="fill:#f0f0f0"></path><path d="M209,303c0,1.16.06,2.31.1,3.46a69.7,69.7,0,0,1,20.84,1C226.94,305,216,301.72,209,303Z" style="fill:#c8856a"></path><path d="M209.23,311c0,1.09.09,2.17.13,3.24,1.58-.14,11.31-1,15.6-2.72A114.69,114.69,0,0,0,209.23,311Z" style="fill:#c8856a"></path><path d="M286.19,270s-4.22-4.4-12.33-3.42-11.42,5.75-11.42,5.75C271.13,268.4,286.19,270,286.19,270Zm-19.1,3.9c4.77.95,9.55,1.37,20-.7C282.14,272,267.09,273.89,267.09,273.89Z" style="fill:#c8856a"></path><path d="M237,306.64c-.86,4.42,0,8.81,1,13.89a86.4,86.4,0,0,1,2,16.08c.16,10.2-3.36,31.9-5.17,42.3.4-.08.78-.18,1.14-.28,1.83-10.6,5.26-31.91,5.11-42a87.84,87.84,0,0,0-2-16.27c-1-5.17-1.79-9.26-1-13.47,1.66-8.53,6.55-54.92,6.82-77.88l-1.07,0C243.57,251.87,238.69,298.14,237,306.64Z" style="fill:#37474f"></path></g><g id="freepik--Top--inject-8"><path d="M188.29,148.44c.93-.51,2.64,1,4.93,3.14a5.18,5.18,0,0,1,1.61,4.17,7,7,0,0,1-4-2.32A12.28,12.28,0,0,1,188.29,148.44Z" style="fill:#263238"></path><path d="M183.1,165.94c.88-.28,1.22-.66,0-1.79s-5.29-4.09-5.29-4.09l-1,1.7S181.54,166.28,183.1,165.94Z"></path><path d="M157.14,138.24c.57-2.52,3.33-4.38,8.31-7.15,2.52-1.43,49.84-23.09,56.43-25.62,8.84-3.39,11.9-3.54,15.8-4.09l-9.13,32.11s-29.89,9.86-42.38,13.7c3.44,4.07,6.47,7.61,9.56,9l-12.19,10.34c-2.7-4.19-19.2-12.59-22.85-18.27C158,144,156.59,140.69,157.14,138.24Z" style="fill:#c8856a"></path><path d="M237.56,101.14C232,101.48,225.22,103,204,112.6s-36.77,15.81-42.17,20.62c12.72-.44,18.78,5.88,24,13.58L231,134Z" style="fill:#D99533"></path><path d="M172.33,135.89a26,26,0,0,0-11.08-.89,7.8,7.8,0,0,0-2.49.58,5.89,5.89,0,0,0-1.7,3.09,2.71,2.71,0,0,1,0-3.59c.71-.72,1.25-1,1.93-1.74a11.68,11.68,0,0,0,1.21-2.33,4.28,4.28,0,0,1,3-2.11,5.68,5.68,0,0,0,1.16-.23,5.4,5.4,0,0,0,1.38-1.2c1.55-1.43,4-1.28,6-.72,4.15,1.14,8.85,2.78,11.81,5.89a20.06,20.06,0,0,1,5.86,13.16,5.89,5.89,0,0,1-3.23,1.39,65.45,65.45,0,0,0-5.33-6.49A24.52,24.52,0,0,0,172.33,135.89Z" style="fill:#D99533"></path><path d="M172.33,135.89a26,26,0,0,0-11.08-.89,7.8,7.8,0,0,0-2.49.58,5.89,5.89,0,0,0-1.7,3.09,2.71,2.71,0,0,1,0-3.59c.71-.72,1.25-1,1.93-1.74a11.68,11.68,0,0,0,1.21-2.33,4.28,4.28,0,0,1,3-2.11,5.68,5.68,0,0,0,1.16-.23,5.4,5.4,0,0,0,1.38-1.2c1.55-1.43,4-1.28,6-.72,4.15,1.14,8.85,2.78,11.81,5.89a20.06,20.06,0,0,1,5.86,13.16,5.89,5.89,0,0,1-3.23,1.39,65.45,65.45,0,0,0-5.33-6.49A24.52,24.52,0,0,0,172.33,135.89Z" style="fill:#fff;opacity:0.4"></path><path d="M188.5,146.44c-.33-.53-.79-1.23-1.33-2-2.81-4.07-9.53-11.44-17.86-10.54,5.46,1.32,10.12,4.37,14.09,9.71l.2.25c.9,1.14,1.77,2.29,2.32,3l.25.34A5.4,5.4,0,0,0,188.5,146.44Z" style="fill:#D99533;opacity:0.4"></path><path d="M184.47,157.43c1.38-1.23,4.76-4.31,6.9-3.41,3.38,1.43,5,2.77,10,5.14,3.66,1.73,8.12,4,9.07,5.16,2.43,2.9,1.62,10.33.64,13.47s-3.94,1.8-3.94,1.8c-.29.64-1.11,2-3.7,1.51-.2,1-1.67,2.12-4,1.66-.29,1.06-2.35,1.43-3.73.81-1.91-.86-3.91-3.59-5.11-4.63s-1.78-1.43-1.81-2.08c0-.88.94-1.77,2.55-1.62a9.94,9.94,0,0,1-4.93-3.12,21.2,21.2,0,0,1-2.5-4.42,10.17,10.17,0,0,0-2.21-3.51c-1.78-2,.89-5,2.32-6.41Z" style="fill:#c8856a"></path><path d="M191.42,175.24a7.68,7.68,0,0,1,1.55,1,5.59,5.59,0,0,1,.62.67c.19.25.33.52.54.79l.11.14.15-.08a6.26,6.26,0,0,1,3-.4,4.24,4.24,0,0,0-3.17,0l.27.06a6.06,6.06,0,0,0-1.28-1.46A4.55,4.55,0,0,0,191.42,175.24Z" style="fill:#af6152"></path><path d="M195,180.4c-.12-.5-.3-.92-.39-1.38a11.55,11.55,0,0,1-.28-1.4,2.11,2.11,0,0,0-.14,1.5A2.42,2.42,0,0,0,195,180.4Z" style="fill:#af6152"></path><path d="M199.52,182.76a10.27,10.27,0,0,0,1-3.89,10.38,10.38,0,0,0-.38-4,25,25,0,0,1-.06,4A24,24,0,0,1,199.52,182.76Z" style="fill:#af6152"></path><path d="M203.48,181.1a19.51,19.51,0,0,0,1.09-4.72,15.35,15.35,0,0,0-.21-4.83,40.22,40.22,0,0,1-.22,4.79C204,177.93,203.71,179.5,203.48,181.1Z" style="fill:#af6152"></path><path d="M207.18,179.59a13.92,13.92,0,0,0,.83-9.77,27.9,27.9,0,0,1,0,4.92A29.23,29.23,0,0,1,207.18,179.59Z" style="fill:#af6152"></path><path d="M207.78,167.28a2.67,2.67,0,0,0-.19-1.18,2.78,2.78,0,0,0-.76-1,4.65,4.65,0,0,0-2.2-.86l1,.57a5.41,5.41,0,0,1,.94.61A3.56,3.56,0,0,1,207.78,167.28Z" style="fill:#af6152"></path><path d="M204,168.75a2.56,2.56,0,0,0-.2-1.18,2.65,2.65,0,0,0-.76-1,4.53,4.53,0,0,0-2.2-.85l1,.56a6,6,0,0,1,.93.61A3.68,3.68,0,0,1,204,168.75Z" style="fill:#af6152"></path><path d="M199.43,170.83a2.56,2.56,0,0,0-.2-1.18,2.73,2.73,0,0,0-.75-1,4.6,4.6,0,0,0-2.21-.85l1,.56a6,6,0,0,1,.93.61A3.63,3.63,0,0,1,199.43,170.83Z" style="fill:#af6152"></path><g id="freepik--Watch--inject-8"><path d="M180.29,149.5l5.14-1.73a3.87,3.87,0,0,1,3.41.69l4.07,3.58a1.22,1.22,0,0,1,.51,1.13c-.06.26-.25,1.25-.31,1.51a1.2,1.2,0,0,1-.9.84l-5.13,1.73a3.85,3.85,0,0,1-3.42-.68L179.59,153a1.25,1.25,0,0,1-.51-1.1c0-.28.26-1.28.31-1.54A1.23,1.23,0,0,1,180.29,149.5Z" style="fill:#37474f"></path><path d="M192.91,152l-4.07-3.58a3.87,3.87,0,0,0-3.41-.69l-5.14,1.73a1.07,1.07,0,0,0-.39,2l4.06,3.58a3.85,3.85,0,0,0,3.42.68l5.13-1.72A1.07,1.07,0,0,0,192.91,152Z" style="fill:#455a64"></path><path d="M185.69,155.32a3.11,3.11,0,0,0,1.53,0l5.13-1.73c.33-.11.54-.28.57-.47s-.09-.42-.34-.65l-4.07-3.58a3.33,3.33,0,0,0-2.92-.59L180.45,150c-.32.11-.53.28-.57.47s.09.42.35.65l4.06,3.58A3.13,3.13,0,0,0,185.69,155.32Z" style="fill:#263238"></path><path d="M188,156.37a.1.1,0,0,0,.09,0l3.64-1.22a.18.18,0,0,0,.11-.22.16.16,0,0,0-.22-.11L187.93,156a.18.18,0,0,0-.11.22A.16.16,0,0,0,188,156.37Z" style="fill:#455a64"></path><path d="M183.63,155.63c-.77.24-2.47,1.28-3.17,4.35s.89,5.61,2.64,6c-.61.41-2.09-.2-3.92-1.57l-1.51-1.14a4.58,4.58,0,0,1-1.84-3.88A8.13,8.13,0,0,1,176,158c.61-2.41,1.39-4.19,3.76-5.72Z" style="fill:#263238"></path></g><path d="M293.89,196.68c-2.66-12.15-6.71-30.06-6.81-32.74-.39-10.88,2.41-19,3.42-25.75,2.21-14.73-3.32-27.1-6.75-30,0,0-5.51-2.25-9.55-3.94-12.85-5.39-18.46-6.13-27.51-3-1.52.54-13.43,6-13.44,6s-5.23,4.28-10.13,13c-3.74,6.68-5.58,12.26-5.09,26.57.15,4.29.32,12,.15,18.11-.37,13.13-1.36,18.54-3,30.46C230.24,204.71,268.23,209,293.89,196.68Z" style="fill:#263238"></path><g id="freepik--Head--inject-8"><path d="M275.67,41.85a13.27,13.27,0,0,1,14.53,3.56c3.51,4.05,4.15,9.78,4.55,15.13.7,9.27,1.2,17.09,1.37,26.38.08,4.16.71,8.29.93,12.48q.39,7,.52,14.1a5.15,5.15,0,0,1-.76,3.46,4.65,4.65,0,0,1-2.92,1.34,21.34,21.34,0,0,1-15.14-3.19,24.06,24.06,0,0,1-11-20c-.16-5.41.95-10.76,2-16.06a109.46,109.46,0,0,1,2.85-11.59c.77-2.4,1.71-4.75,2.36-7.19a31.36,31.36,0,0,0,.17-15.28" style="fill:#263238"></path><path d="M281.06,41.94a15.46,15.46,0,0,1,4.82,8.41,4.34,4.34,0,0,1-.1,2.6,3.22,3.22,0,0,1-3.42,1.62,6.37,6.37,0,0,1-3.45-2,13.39,13.39,0,0,1-3.74-7.7c-.16-1.34.05-3.45,1.36-4.22C278,39.76,280,41,281.06,41.94Z" style="fill:#D99533"></path><path d="M230.58,60.29c-2.86-6.65,0-15.43,3.49-19.55,5-6,12.82-8.49,24.54-7.7,8.91.59,19.57,4.62,21.2,13.78,8.23,4.22,5.25,15.67,3,20.48-4.67,10.11-11.28,18-11.43,23.39Z" style="fill:#263238"></path><path d="M281.07,70.87c-2.93-3.71-7.09-2.87-9.13.26s-5.26,1.93-3.66-2.87c-2.15-1.11-4.79-3.43-2.48-12.28.53-2.27-.18-6.24-2.27-8.24-3.51-3.34-10.56-2.84-14.67,1-5.29-4.65-8.75-5.34-13-2.25-2.05,1.5-5.5,5.77-5.28,13.78.18,2.42-.7,5.38-.86,9.9-.6,17.08,4,20.81,8.57,23,2.71,1.3,4.22,1.55,8.62,1.65l-.22,6.46s-4.53,5.12-5.18,19.09c22.89-10.28,28-18,28-18l1.26-18.57a5.43,5.43,0,0,0,5.82.18C281.22,81.47,284,74.58,281.07,70.87Z" style="fill:#c8856a"></path><path d="M251.75,78.83l-8,2.5a4,4,0,0,0,5.11,2.83A4.39,4.39,0,0,0,251.75,78.83Z" style="fill:#af6152"></path><path d="M247,84.28a3.76,3.76,0,0,1,3.87-3.59,3.85,3.85,0,0,1,.9.15,4.38,4.38,0,0,1-2.93,3.32A4,4,0,0,1,247,84.28Z" style="fill:#ffa8a7"></path><polygon points="246.06 61.21 244.45 76.42 236.96 72.55 246.06 61.21" style="fill:#af6152"></polygon><path d="M246.91,94.83c5.49-.11,17.31-2.7,20.42-9.88,0,0-.61,5.18-7.48,9-5.41,3-13,3.38-13,3.38Z" style="fill:#af6152"></path><path d="M252.11,66.22a2.42,2.42,0,1,0,2.28-2.56A2.42,2.42,0,0,0,252.11,66.22Z" style="fill:#263238"></path><path d="M234,65A2.43,2.43,0,1,0,236,62.13,2.44,2.44,0,0,0,234,65Z" style="fill:#263238"></path><path d="M235.28,55.52a3.47,3.47,0,0,1,4.09,2.71l-6.8,1.39A3.48,3.48,0,0,1,235.28,55.52Z" style="fill:#263238"></path><path d="M258,57.61a3.46,3.46,0,0,1,1.67,4.61l-6.28-2.94A3.45,3.45,0,0,1,258,57.61Z" style="fill:#263238"></path><path d="M237.68,37.41l26,.91C281,45.87,273.78,68.24,270,70.87c-10.29-4.77-9.24-15.17-8.27-21.08-5.46,4.78-14.41,8.13-18.58,8.41,2-2.24,3.82-7.91,3.82-7.91a21.18,21.18,0,0,1-8.54,8.62c-6.57,3.48-10.87.85-10.87.85S225.93,44,237.68,37.41Z" style="fill:#263238"></path></g><path d="M269.58,99.71a55.24,55.24,0,0,1-2.72,9.72c-2.34,6.7-3.31,12.1-4.23,26.61s1.95,69.42-.18,85.8c10.79.38,28.26-6.18,36.61-14.6-.13-5.75-1.33-5.07-4.67-19.87s-7.32-16.13-6.22-24,9.65-38.84,3.83-55a89.9,89.9,0,0,1-11.07-2.55C270.78,103,269.58,99.71,269.58,99.71Z" style="fill:#D99533"></path><path d="M269.58,99.71a55.24,55.24,0,0,1-2.72,9.72c-2.34,6.7-3.31,12.1-4.23,26.61s1.95,69.42-.18,85.8c10.79.38,28.26-6.18,36.61-14.6-.13-5.75-1.33-5.07-4.67-19.87s-7.32-16.13-6.22-24,9.65-38.84,3.83-55a89.9,89.9,0,0,1-11.07-2.55C270.78,103,269.58,99.71,269.58,99.71Z" style="fill:#fff;opacity:0.4"></path><path d="M246.6,98.12l-.43,1.46c-.15,4.16-9,10.48-15.31,20.09s-7.64,19.14-7.67,31.7-4.95,59.49-6.44,65.58A17,17,0,0,1,210,206.47c1.26-7.41,3.5-20.28,4.74-24.77s1.41-11.89,1.74-21.17a83.5,83.5,0,0,0-.32-12.05s-5.68-7.59-1.72-21.15,23.14-26.19,23.14-26.19a34.57,34.57,0,0,1,3.7-.78A20.44,20.44,0,0,0,246.6,98.12Z" style="fill:#D99533"></path><path d="M246.6,98.12l-.43,1.46c-.15,4.16-9,10.48-15.31,20.09s-7.64,19.14-7.67,31.7-4.95,59.49-6.44,65.58A17,17,0,0,1,210,206.47c1.26-7.41,3.5-20.28,4.74-24.77s1.41-11.89,1.74-21.17a83.5,83.5,0,0,0-.32-12.05s-5.68-7.59-1.72-21.15,23.14-26.19,23.14-26.19a34.57,34.57,0,0,1,3.7-.78A20.44,20.44,0,0,0,246.6,98.12Z" style="fill:#fff;opacity:0.4"></path><path d="M270.05,93.94a18.89,18.89,0,0,0,7.57,10.85s-3.29,13.09-3,19.59,1.35,12.82-.43,12.71-7.12-1.94-7.12-1.94,4.09,6.46,3.61,8.43-8,24-8,24-1.9-25.83-1.2-33.36S264.06,112.85,267,105A68.71,68.71,0,0,0,270.05,93.94Z" style="fill:#D99533"></path><path d="M222.59,162.55c-.12-7.26-3.27-25.56-3.63-29.21s4.9-6.76,4.9-6.76-3.13.69-4.13-.14,5.57-9.67,11.12-15.45,16-14.49,16-14.49l-.19,4.79a67.67,67.67,0,0,0-8.14,10C233.63,118.78,224.64,126.83,222.59,162.55Z" style="fill:#D99533"></path><g id="freepik--Arm--inject-8"><path d="M304.42,219.94c3.72,1.06,8.49-3.57,9.79-5.18s-.37-5.43-1.16-8.66,0-8.69-4-7.16S296.66,211.25,304.42,219.94Z" style="fill:#af6152"></path><path d="M291.7,109c10.35,1.53,13.58,3.77,19.28,15.23,6.64,13.34,17.38,31.91,19,37.7,1.55,5.39,4.63,9.23-1.27,17.43-5.4,7.5-22.36,27.15-24.85,30-2.2,2.55-1,9.85,6.6,8.77,0,0-5.77,5.1-8.94,4.54-2.74-.49-7-2.89-11-11.18-2.49-5.23-.41-9.34,3.38-15.17,4.52-6.95,14.29-26.35,14.29-26.35L290.77,139S282.88,118.2,291.7,109Z" style="fill:#c8856a"></path></g><path d="M292,108.39c8.64,2,11.13,1.66,16.55,10.2S322.9,145,326.12,151.15s8.09,16.25,6.1,22.26c-2.29-3.66-15-6.53-24-3.41L290,139.58S280.87,117.17,292,108.39Z" style="fill:#D99533"></path><path d="M307.36,171.76c5.8-1.42,14,0,19.37,2.55,1.06.49,3,1.82,3,3.55l-1,1.5a3,3,0,0,0,3.11-1.53,22.82,22.82,0,0,1,1.07-2.16c.7-1,1.95-1.71,2.14-2.92.17-1.05-.54-2-.89-3-.6-1.75-.15-3.84-1.22-5.34a4.89,4.89,0,0,0-1.41-1.23c-3-1.86-6.62-2.22-10.11-2-5.41.26-11,1.85-14.75,5.78a1.85,1.85,0,0,0-.35,2.41c.11.26.26.55.14.81a1.33,1.33,0,0,1-.23.3,1.66,1.66,0,0,0-.26.84,2,2,0,0,0,.71,1.8Z" style="fill:#D99533"></path><path d="M307.36,171.76c5.8-1.42,14,0,19.37,2.55,1.06.49,3,1.82,3,3.55l-1,1.5a3,3,0,0,0,3.11-1.53,22.82,22.82,0,0,1,1.07-2.16c.7-1,1.95-1.71,2.14-2.92.17-1.05-.54-2-.89-3-.6-1.75-.15-3.84-1.22-5.34a4.89,4.89,0,0,0-1.41-1.23c-3-1.86-6.62-2.22-10.11-2-5.41.26-11,1.85-14.75,5.78a1.85,1.85,0,0,0-.35,2.41c.11.26.26.55.14.81a1.33,1.33,0,0,1-.23.3,1.66,1.66,0,0,0-.26.84,2,2,0,0,0,.71,1.8Z" style="fill:#fff;opacity:0.4"></path></g></g></g></svg>