<svg xmlns="http://www.w3.org/2000/svg" viewBox="0 0 500 500"><g id="freepik--Shadow--inject-50"><ellipse id="freepik--path--inject-50" cx="250" cy="415.69" rx="193.89" ry="11.32" style="fill:#f5f5f5"></ellipse></g><g id="freepik--character-3--inject-50"><path d="M312.3,123.23s-10.1-6.73-4.71,12.48l5.08-4.47.44-6.49Z" style="fill:#263238"></path><path d="M361.86,148.29l-6.72-7.83,8.58-.45s2.86,4.6,1.11,7.64Z" style="fill:#b55b52"></path><path d="M353.36,143.74h0a2.06,2.06,0,0,1,2-1.09l4.05.39.64,2.87Z" style="fill:#b55b52"></path><polygon points="353.83 134.31 360.27 134.15 363.72 140.01 355.14 140.46 353.83 134.31" style="fill:#b55b52"></polygon><path d="M339.28,162c4.52.84,9.19,1.66,13.78,2.38s9.22,1.29,13.76,1.63l1.69.1h.05l-.18,0-.24.06a1.75,1.75,0,0,0-.32.12,2.35,2.35,0,0,0-1,.9c-.31.6-.12.49-.11.23a5.25,5.25,0,0,0,0-1.13,35.34,35.34,0,0,0-1.32-6.28c-.61-2.2-1.3-4.42-2.07-6.63s-1.54-4.45-2.32-6.64l3.83-1.9a94.61,94.61,0,0,1,6.8,13,36.06,36.06,0,0,1,2.38,7.48,12.41,12.41,0,0,1,.22,2.42,6.68,6.68,0,0,1-1,3.66,5.38,5.38,0,0,1-2.37,2,7.09,7.09,0,0,1-.73.26l-.69.14c-.23,0-.41,0-.62.05h-2.27a123.91,123.91,0,0,1-14.64-1.07c-4.84-.59-9.56-1.36-14.37-2.39Z" style="fill:#b55b52"></path><polygon points="342.54 402.84 334.1 403.22 331.58 383.76 340.01 383.37 342.54 402.84" style="fill:#b55b52"></polygon><path d="M333.24,402.28l9.47-.43a.66.66,0,0,1,.7.54l1.43,7.45a1.36,1.36,0,0,1-1.28,1.57c-3.31.09-4.91,0-9.08.16-2.57.12-9.92.73-13.46.89s-3.89-3.33-2.43-3.72c6.54-1.72,11.12-3.9,13.26-5.87A2.21,2.21,0,0,1,333.24,402.28Z" style="fill:#FFBA40"></path><polygon points="331.58 383.76 332.88 393.8 341.32 393.41 340.02 383.38 331.58 383.76" style="opacity:0.2"></polygon><path d="M310.2,215.51s1.08,65.4,4.68,90.91C318.62,333,331,391.93,331,391.93l11.41-.52S338.1,332.21,336,306c-2.3-28.62-.85-93.43-.85-93.43Z" style="fill:#263238"></path><polygon points="343.4 391.77 330.01 392.38 328.83 388.16 343.8 386.95 343.4 391.77" style="fill:#263238"></polygon><path d="M330.14,403.91a3.26,3.26,0,0,1-2.08-.43,1.12,1.12,0,0,1-.4-1A.63.63,0,0,1,328,402c1-.62,4.45.95,4.84,1.13a.19.19,0,0,1,.12.2.2.2,0,0,1-.15.17A14.71,14.71,0,0,1,330.14,403.91Zm-1.59-1.68a.78.78,0,0,0-.37.09.24.24,0,0,0-.12.22.71.71,0,0,0,.26.63c.53.44,1.92.45,3.78.06A10.6,10.6,0,0,0,328.55,402.23Z" style="fill:#FFBA40"></path><path d="M332.74,403.49l-.08,0c-1-.41-3.1-2.13-3-3.1,0-.22.17-.51.72-.6a1.42,1.42,0,0,1,1.12.3c1.11.83,1.41,3.1,1.42,3.19a.18.18,0,0,1-.08.18A.22.22,0,0,1,332.74,403.49Zm-2.17-3.33h-.12c-.36.05-.38.2-.39.25-.06.58,1.35,1.95,2.41,2.52a4.56,4.56,0,0,0-1.2-2.55A1,1,0,0,0,330.57,400.16Z" style="fill:#FFBA40"></path><path d="M331.62,217.14l-4.75,7.06s-5.95,6.91-4,27.4c1.73,17.82,8,40.09,12.23,37.66-.72-22.74-.4-52.52-.16-67.41Z" style="opacity:0.4"></path><polygon points="301.08 396.01 292.67 395.27 291.66 375.55 300.08 376.29 301.08 396.01" style="fill:#b55b52"></polygon><path d="M291.89,393.56l9.48-.58a.65.65,0,0,1,.7.53l1.55,7.43a1.36,1.36,0,0,1-1.26,1.58c-3.31.15-4.91.05-9.08.31-2.56.16-6.29.65-9.83.87s-3.94-3.27-2.49-3.68c6.52-1.82,7.45-3.85,9.56-5.86A2.19,2.19,0,0,1,291.89,393.56Z" style="fill:#FFBA40"></path><polygon points="300.08 376.29 291.66 375.56 292.18 385.72 300.6 386.46 300.08 376.29" style="opacity:0.2"></polygon><path d="M327,230.15c-5.38,19.64-27.43,54.37-34.63,75.68-8.54,25.31-2,77.77-2,77.77l11.48,1s5-50.64,8.13-64.9c6.67-30.41,44.37-61.81,42.7-82.73-.65-8.15-9.5-27.22-9.5-27.22l-20.67.95S328.61,224.19,327,230.15Z" style="fill:#263238"></path><polygon points="303.07 385.32 288.83 384.08 287.7 379.47 304.52 380.17 303.07 385.32" style="fill:#263238"></polygon><path d="M287.55,394.93l-.08-.06a1.13,1.13,0,0,1-.4-1,.7.7,0,0,1,.36-.59c1-.5,3.62,1,3.92,1.17a.19.19,0,0,1,.1.19.21.21,0,0,1-.14.17C290.27,395.09,288.42,395.51,287.55,394.93Zm3.17-.41c-1.08-.57-2.6-1.19-3.1-.92a.27.27,0,0,0-.15.26.75.75,0,0,0,.25.7C288.17,394.92,289.27,394.9,290.72,394.52Z" style="fill:#FFBA40"></path><path d="M290.89,394.6c-.87-.58-2.19-2.07-2.07-2.93a.68.68,0,0,1,.63-.6,1,1,0,0,1,.86.21c1,.76,1.13,3.18,1.14,3.29a.21.21,0,0,1-.09.18.23.23,0,0,1-.2,0A2.09,2.09,0,0,1,290.89,394.6Zm-.87-3a.65.65,0,0,0-.49-.1c-.26.05-.3.16-.32.26-.08.59,1,1.89,1.8,2.48a4.57,4.57,0,0,0-.94-2.6Z" style="fill:#FFBA40"></path><path d="M304.71,174.05c-2.16.82-4.18,1.41-6.32,2a61.84,61.84,0,0,1-6.5,1.36,36.57,36.57,0,0,1-7,.5,21.39,21.39,0,0,1-3.84-.45,12.79,12.79,0,0,1-4.23-1.73,9.75,9.75,0,0,1-1.9-1.66,13.49,13.49,0,0,1-1.27-1.68,24.35,24.35,0,0,1-1.73-3.23,48.93,48.93,0,0,1-2.26-6.28,80.34,80.34,0,0,1-2.53-12.6l4.17-.95c1.41,3.81,2.9,7.68,4.51,11.33a56.21,56.21,0,0,0,2.6,5.21,16.93,16.93,0,0,0,1.44,2.14,5.88,5.88,0,0,0,.68.75,1.59,1.59,0,0,0,.48.34,9.28,9.28,0,0,0,3.95.54,37.42,37.42,0,0,0,5.46-.64c1.88-.35,3.77-.84,5.67-1.36s3.84-1.12,5.6-1.7Z" style="fill:#b55b52"></path><path d="M270.91,152.46l6-8.41-8.58.33s-2.43,4.86-.4,7.72Z" style="fill:#b55b52"></path><path d="M279,147.15h0a2,2,0,0,0-2.11-.9l-4,.76-.37,2.92Z" style="fill:#b55b52"></path><polygon points="277.62 137.81 271.2 138.24 268.3 144.38 276.88 144.05 277.62 137.81" style="fill:#b55b52"></polygon><path d="M301.12,164.32s-4.79,2.93,9.08,51.19l34.06-4c-2.22-13.8-2.15-20.16,1.09-49.4,0,0-8.43-2.89-15.8-2.37a108.42,108.42,0,0,0-15.47,1.84C307.51,162.93,301.12,164.32,301.12,164.32Z" style="fill:#FFBA40"></path><path d="M300.78,164.32s-4.78,2.93,9.08,51.19l34.07-4c-2.22-13.8-2.16-20.16,1.08-49.4,0,0-8.42-2.89-15.79-2.37a108.07,108.07,0,0,0-15.47,1.84C307,163,307.32,162.9,300.78,164.32Z" style="fill:#fff;opacity:0.5"></path><path d="M325.94,142.45c-.38,5.1-.27,14.33,3.61,17.24,0,0-.76,5.21-10,6.31-10.16,1.21-5.46-4.47-5.46-4.47,5.4-2,4.76-6.09,3.33-9.84Z" style="fill:#b55b52"></path><path d="M322.47,146.22l-5.05,5.47a15.6,15.6,0,0,1,.8,2.69c2.09-.56,4.72-3.24,4.68-5.48A7.65,7.65,0,0,0,322.47,146.22Z" style="opacity:0.2"></path><path d="M331.27,133.76c-1.54,8.24-2,11.76-6.74,15.51-7.1,5.63-16.88,1.94-17.84-6.6-.86-7.68,1.8-19.86,10.34-22.16A11.43,11.43,0,0,1,331.27,133.76Z" style="fill:#b55b52"></path><path d="M311.07,122.25c-2.57,3.94,24.78,16.92,21.81,8.06S317.77,112,311.07,122.25Z" style="fill:#263238"></path><path d="M325.08,130.8c-.46,4,5,8.45,5,8.45s6.5-5.26,2.15-7.72S325.08,130.8,325.08,130.8Z" style="fill:#263238"></path><path d="M317.21,134.35c-.08.68-.51,1.18-.95,1.13s-.73-.65-.65-1.32.51-1.18.95-1.13S317.29,133.68,317.21,134.35Z" style="fill:#263238"></path><path d="M309.57,133.41c-.09.67-.51,1.18-1,1.12s-.73-.64-.64-1.32.51-1.18.95-1.13S309.65,132.73,309.57,133.41Z" style="fill:#263238"></path><path d="M309.11,132.15l-1.57-.67S308.22,132.85,309.11,132.15Z" style="fill:#263238"></path><path d="M312.31,134.89a18,18,0,0,1-2.94,4,2.94,2.94,0,0,0,2.35.75Z" style="fill:#a02724"></path><path d="M332.57,141.65a6.14,6.14,0,0,1-3.58,3c-2.06.63-3.14-1.2-2.61-3.17.47-1.77,2.12-4.22,4.2-4A2.74,2.74,0,0,1,332.57,141.65Z" style="fill:#b55b52"></path><path d="M320.47,133.18a.41.41,0,0,1-.39-.27c-.62-1.74-2.92-2.39-2.94-2.4a.4.4,0,1,1,.21-.77c.11,0,2.72.77,3.48,2.9a.39.39,0,0,1-.24.51Z" style="fill:#263238"></path><path d="M307.71,129.59a.4.4,0,0,1-.23-.73,3.94,3.94,0,0,1,3.63-.41.4.4,0,0,1,.2.53.39.39,0,0,1-.53.19h0a3.19,3.19,0,0,0-2.87.36A.36.36,0,0,1,307.71,129.59Z" style="fill:#263238"></path><path d="M316.75,133.09l-1.57-.67S315.86,133.79,316.75,133.09Z" style="fill:#263238"></path><path d="M311.82,142.05s2.35-.74,9.1-1.27c-.63,2.09-2,3.86-5.43,4.1A3.15,3.15,0,0,1,311.82,142.05Z" style="fill:#263238"></path><path d="M317,143.16a6.34,6.34,0,0,0-3.68,1.28,3.77,3.77,0,0,0,2.2.44,6.24,6.24,0,0,0,3.68-1.28A3.6,3.6,0,0,0,317,143.16Z" style="fill:#a02724"></path><path d="M312.12,142a1.38,1.38,0,0,0,1.13.92,35.12,35.12,0,0,0,5.93-1,1.88,1.88,0,0,0,1.44-1.12A56.83,56.83,0,0,0,312.12,142Z" style="fill:#fff"></path><path d="M333.08,131.25c-8.52.88-9.36-2.39-9.36-2.39a18.18,18.18,0,0,0,7.65,1.18,36.59,36.59,0,0,1-18.22-10.23,11.93,11.93,0,0,0-2.08,2.44C308.6,126,333.73,138.15,333.08,131.25Z" style="fill:#FFBA40"></path><path d="M311.51,123s-5.17-7.3-8.65,1.37A7.2,7.2,0,0,1,311.51,123Z" style="fill:#FFBA40"></path></g><g id="freepik--character-1--inject-50"><path d="M189.36,159.44c3.32,3.42,6.82,6.89,10.33,10.14,1.76,1.64,3.58,3.18,5.39,4.67a41.43,41.43,0,0,0,5.45,3.85,8.85,8.85,0,0,0,2.27,1c1.1.23,2.25.44,3.43.64,2.35.39,4.77.71,7.2,1,4.86.63,9.79,1.26,14.69,2l-.11,4.45c-5,.42-10,.6-15.06.57-2.52,0-5-.09-7.62-.27-1.29-.09-2.6-.22-4-.4a16.43,16.43,0,0,1-4.69-1.57,46.15,46.15,0,0,1-6.94-4.37c-2.11-1.56-4.08-3.22-6-4.9a141.42,141.42,0,0,1-11-10.67Z" style="fill:#ffb573"></path><path d="M205.17,171.21l-7.45,10.89s-2.55-2.48-6.51-5.87c-4.48-3.84-9.57-7.91-10.9-11.81-2.36-6.93,1.78-10.31,12.21-5.81C197,160.55,205.17,171.21,205.17,171.21Z" style="fill:#FFBA40"></path><path d="M234.26,183.31l5.63-5.75,3.47,6.91s-6.15,4.54-7.92,2.94Z" style="fill:#ffb573"></path><polygon points="247.07 177.94 248.24 183.36 243.36 184.47 239.89 177.56 247.07 177.94" style="fill:#ffb573"></polygon><path d="M189.11,166.47l-4.25-1.25-3.05,2c2.18,3,6,6.11,9.4,9,2.21,1.89,4,3.49,5.11,4.55C193.44,169.5,189.11,166.47,189.11,166.47Z" style="opacity:0.2"></path><polygon points="211.7 404.46 218.69 402.19 214.34 385.7 207.35 387.97 211.7 404.46" style="fill:#ffb573"></polygon><path d="M218.79,401.26l-7.85,2.55a.51.51,0,0,0-.36.64l1.63,6.34a1.31,1.31,0,0,0,1.63.85c2.72-.94,4-1.52,7.43-2.64,2.12-.69,11.23-3.4,14.16-4.36s1.91-3.82.58-3.68c-6,.63-13.4,1.25-15.87.34A2,2,0,0,0,218.79,401.26Z" style="fill:#263238"></path><polygon points="207.35 387.98 214.35 385.71 216.58 394.21 209.59 396.48 207.35 387.98" style="opacity:0.2"></polygon><path d="M190.31,221.1s9.93,59.83,12.87,80.7c3.23,22.85,15.88,89.69,15.88,89.69l-13,3.58s-18.53-64.77-23.78-87c-5.7-24.12-18.25-87-18.25-87Z" style="fill:#263238"></path><path d="M175.38,239.64c5.08,12.68,4.65,40.23,2.59,49.06-3.11-14.5-6.68-31.85-9.43-45.34C169.52,239.9,172.3,231.92,175.38,239.64Z" style="opacity:0.4"></path><path d="M221.67,401.67a9.54,9.54,0,0,1-1.95.36.17.17,0,0,1-.16-.09.19.19,0,0,1,0-.19c.17-.22,1.71-2.22,2.68-2.16a.65.65,0,0,1,.53.34.94.94,0,0,1,.08.95A2,2,0,0,1,221.67,401.67Zm-1.58,0c1.33-.16,2.24-.5,2.46-.93a.6.6,0,0,0-.07-.62.31.31,0,0,0-.25-.17C221.71,399.9,220.74,400.87,220.09,401.65Z" style="fill:#FFBA40"></path><path d="M219.76,402h-.08a.16.16,0,0,1-.13-.11c0-.08-.84-2-.36-2.95a.88.88,0,0,1,.62-.45.65.65,0,0,1,.75.3c.41.71-.16,2.51-.72,3.15Zm0-3.14a.49.49,0,0,0-.31.25,3.83,3.83,0,0,0,.26,2.37,3.41,3.41,0,0,0,.51-2.51c0-.09-.14-.18-.39-.13Z" style="fill:#FFBA40"></path><polygon points="156.66 407.67 164.01 407.67 164.97 390.65 157.62 390.65 156.66 407.67" style="fill:#ffb573"></polygon><path d="M164.4,406.82h-8.26a.52.52,0,0,0-.54.5l-.4,6.54a1.3,1.3,0,0,0,1.28,1.3c2.88-.05,4.25-.22,7.88-.22,2.24,0,11.73.24,14.82.24s3-3.05,1.69-3.33c-5.86-1.24-13.13-3-15.21-4.58A2.07,2.07,0,0,0,164.4,406.82Z" style="fill:#263238"></path><polygon points="157.62 390.66 164.97 390.66 164.47 399.43 157.12 399.43 157.62 390.66" style="opacity:0.2"></polygon><path d="M176,220.73s.7,56.16-.49,77.2c-1.31,23.05-7.84,99.38-7.84,99.38H154.16s.41-74.47-.4-97.29c-.47-13.09-4.12-34.5-4.83-51.78a113.59,113.59,0,0,1,2.6-28.45Z" style="fill:#263238"></path><path d="M167,408.1a9.3,9.3,0,0,1-1.95-.26.17.17,0,0,1-.13-.14.15.15,0,0,1,.07-.17c.23-.16,2.31-1.58,3.21-1.23a.66.66,0,0,1,.4.48,1,1,0,0,1-.22.93A2,2,0,0,1,167,408.1Zm-1.48-.51c1.31.26,2.28.22,2.62-.12a.62.62,0,0,0,.12-.61.27.27,0,0,0-.19-.24C167.59,406.43,166.37,407.05,165.52,407.59Z" style="fill:#FFBA40"></path><path d="M165.08,407.84a.1.1,0,0,1-.07,0,.15.15,0,0,1-.1-.13c0-.09-.17-2.21.57-2.92a.89.89,0,0,1,.73-.24.65.65,0,0,1,.62.52c.17.8-.93,2.33-1.66,2.77A.15.15,0,0,1,165.08,407.84Zm1-3a.51.51,0,0,0-.37.15,3.85,3.85,0,0,0-.48,2.34c.64-.54,1.37-1.71,1.25-2.23,0-.1-.07-.22-.32-.25Z" style="fill:#FFBA40"></path><path d="M190.76,223.21H150.19c-.28-3.62.55-15.41-.07-30.42a192.26,192.26,0,0,0-4-33.08c-.19-.82-.37-1.63-.56-2.45,0,0,2.05-.42,5-.85,2.44-.36,5.51-.73,8.52-.87a152.43,152.43,0,0,1,17.24,0c2.65.25,5.24.69,7.31,1.09,2.64.53,4.19,1,4.19,1S197.79,180.56,190.76,223.21Z" style="fill:#FFBA40"></path><path d="M169.74,161.06c-9.71-.27-11.16-5-11.22-5.22l-.06-.21,1.65-.1a150.13,150.13,0,0,1,16.71,0l.94.1a3.13,3.13,0,0,1,1.09,2.82c-.43,1.65-2.7,2.21-4.69,2.44Z" style="fill:#fff"></path><path d="M170.05,160.07c-9.35-.16-10.58-4.5-10.58-4.5,3.64-3.59,2.24-13.39,1-18.77l4.47,3.7,6.09,5.06a19.62,19.62,0,0,0-.39,2.46c-.33,3.3.53,6.3,5.38,7.45,0,0,5.77,3.82-2.79,4.51Z" style="fill:#ffb573"></path><path d="M170.64,148a19.78,19.78,0,0,1,.32-2.1l-7.83-6.5a14.79,14.79,0,0,0,.11,3.18c.42,3.06,4.29,6.24,7.35,7A12.33,12.33,0,0,1,170.64,148Z" style="opacity:0.2"></path><path d="M158.31,130.2c1.63,7.5,2.21,12,6.64,15.39a10,10,0,0,0,16.15-7.19c.58-7-2.18-18.08-10.08-20.21A10.1,10.1,0,0,0,158.31,130.2Z" style="fill:#ffb573"></path><path d="M170.15,130.94c.1.62.5,1.08.9,1s.66-.59.56-1.2-.49-1.08-.9-1S170.06,130.32,170.15,130.94Z" style="fill:#263238"></path><path d="M177.14,130.11c.09.62.5,1.08.9,1s.66-.59.56-1.2-.5-1.08-.9-1S177,129.49,177.14,130.11Z" style="fill:#263238"></path><path d="M175,130.68a23.47,23.47,0,0,0,3.77,4.91,3.55,3.55,0,0,1-2.87.91Z" style="fill:#ed893e"></path><path d="M167.64,129a.33.33,0,0,1-.17,0,.38.38,0,0,1-.15-.5,3.5,3.5,0,0,1,2.74-1.85.35.35,0,0,1,.38.34.36.36,0,0,1-.35.39,2.77,2.77,0,0,0-2.13,1.47A.36.36,0,0,1,167.64,129Z" style="fill:#263238"></path><path d="M179.77,127.36a.38.38,0,0,1-.3-.16,3.09,3.09,0,0,0-2.31-1.4.37.37,0,0,1,0-.73h0a3.76,3.76,0,0,1,2.91,1.72.37.37,0,0,1-.09.51A.42.42,0,0,1,179.77,127.36Z" style="fill:#263238"></path><path d="M147.5,166a131.86,131.86,0,0,1-12.86-8.25c-2.08-1.5-4.14-3.06-6.13-4.81-1-.88-2-1.78-3-2.79a23.91,23.91,0,0,1-2.86-3.54c-.23-.34-.46-.79-.68-1.18s-.41-.9-.54-1.29a16,16,0,0,1-.63-2.3,36.14,36.14,0,0,1-.54-4.17,70.31,70.31,0,0,1,0-7.81,115.4,115.4,0,0,1,1.76-15.1l4.44.4c.13,4.88.29,9.82.63,14.62.16,2.4.42,4.78.77,7s.93,4.49,1.63,5.23a16.83,16.83,0,0,0,2,2.09c.79.73,1.67,1.46,2.57,2.17,1.82,1.42,3.75,2.81,5.73,4.16,4,2.66,8.14,5.26,12.22,7.72Z" style="fill:#ffb573"></path><path d="M152.48,154.48c-10.61-4.76-13.71-8.56-13.71-8.56l-7.21,12.54s11,12.06,19.75,11.51C156.34,169.65,162.78,159.09,152.48,154.48Z" style="fill:#FFBA40"></path><path d="M122,115.92l-.22-7.43,7.85,4.93s-1,6.6-4.36,5.81Z" style="fill:#ffb573"></path><polygon points="126.79 103.7 133.07 108.07 129.65 113.42 121.8 108.49 126.79 103.7" style="fill:#ffb573"></polygon><path d="M168.24,390l-14.05,1.4c0,3.7,0,5.87,0,5.87h13.47S167.86,394.6,168.24,390Z" style="opacity:0.4"></path><polygon points="153.62 397.31 168.17 397.31 168.97 392.2 152.92 393 153.62 397.31" style="fill:#263238"></polygon><path d="M204.2,388.45c1.18,4.14,1.88,6.62,1.88,6.62l13-3.58s-.56-2.95-1.47-7.79Z" style="opacity:0.4"></path><polygon points="205.76 395.33 219.65 391.5 219.38 385.84 203.74 391.25 205.76 395.33" style="fill:#263238"></polygon><path d="M155.25,138.5s5.93,7.22,6.28,4.4-1.06-2-.22-7c0,0,4.75.12,1.5-7.32s-6.06-4.56-6.06-4.56l-2.5,6.31-.31,2.69v3.06Z" style="fill:#263238"></path><path d="M155.25,138.5s5.93,7.22,6.28,4.4-1.06-2-.22-7c0,0,4.75.12,1.5-7.32s-6.06-4.56-6.06-4.56l-2.5,6.31-.31,2.69v3.06Z" style="fill:#fff;opacity:0.5"></path><path d="M173.63,124.16l-.44-4.45,2.34,3.83a42.55,42.55,0,0,1,5.64-1.31S175,112,169.31,111.88c-7.41-.14-9.69,4.66-9.69,4.66s-5.31-1.75-9.31,8.09S156,139.54,156,139.54s2-5.89,9-10.93l-1.7-4.59,3.18,3.58A35.16,35.16,0,0,1,173.63,124.16Z" style="fill:#263238"></path><path d="M156.58,138a8.26,8.26,0,0,0,4.76,2.83c2.37.4,2.9-1.79,1.7-3.91-1.08-1.9-3.62-4.41-5.73-3.85S155.05,136.18,156.58,138Z" style="fill:#ffb573"></path><path d="M178,138.16s-2.38-.63-9.14-.85c.72,2.06,2.14,3.76,5.61,3.85A3.15,3.15,0,0,0,178,138.16Z" style="fill:#263238"></path><path d="M172.9,139.51a6.23,6.23,0,0,1,3.74,1.1,3.67,3.67,0,0,1-2.18.54,6.29,6.29,0,0,1-3.73-1.1A3.59,3.59,0,0,1,172.9,139.51Z" style="fill:#a02724"></path><path d="M177.69,138.1a1.42,1.42,0,0,1-1.09,1,36.41,36.41,0,0,1-6-.7,1.89,1.89,0,0,1-1.49-1.05A54.23,54.23,0,0,1,177.69,138.1Z" style="fill:#fff"></path></g><g id="freepik--character-2--inject-50"><path d="M245.69,143.9s-8.71-8.1-8.32-1.16c0,0-14.79-.44-7.62,4.61,0,0-13.64,6.37-4.73,7.68,0,0-8.91,11.64,1.25,10.43,0,0-2.94,14,4,11.26,0,0,1.48,6.37,8.13,2.12,0,0,8.19,6.06,11.45-2.87,0,0,7.6,3.86,5.77-6.63,0,0,5.68-2.38-.19-10.37C255.4,159,264.47,155.59,245.69,143.9Z" style="fill:#263238"></path><path d="M282.8,183.08a12.71,12.71,0,0,0-1.95-4.81,29.43,29.43,0,0,0-4.77-5.51,56.91,56.91,0,0,0-10.56-7.6,3.27,3.27,0,0,0-4.14,4.9l.09.1c2.44,3.07,5,6.18,7.16,9.22a28.3,28.3,0,0,1,2.21,3.63l-.12.06a17.44,17.44,0,0,1-2.07.79,52.25,52.25,0,0,1-5.13,1.34c-1.82.39-3.69.72-5.58,1s-3.86.61-5.62.87l-.16,0A6.5,6.5,0,0,0,253.68,200c2.29-.2,4.33-.49,6.49-.87s4.26-.84,6.41-1.42a49.18,49.18,0,0,0,6.56-2.21,29.12,29.12,0,0,0,3.5-1.74,15.7,15.7,0,0,0,3.91-3.19,10.2,10.2,0,0,0,1.9-3.28,8.2,8.2,0,0,0,.3-1.14,7.94,7.94,0,0,0,.15-1.14A10.21,10.21,0,0,0,282.8,183.08Z" style="fill:#263238"></path><path d="M262.39,163.09l-5.58-1.78-1.07,9.55a19.4,19.4,0,0,0,8.4-1.06,1.86,1.86,0,0,0,1.1-1.86h0A6.3,6.3,0,0,0,262.39,163.09Z" style="fill:#ffc3bd"></path><path d="M251.38,164.79l.06,3.35a2.78,2.78,0,0,0,2.81,2.73h1.49l1.07-9.55-3.24.71A2.77,2.77,0,0,0,251.38,164.79Z" style="fill:#ffc3bd"></path><path d="M253.68,200c2.29-.2,4.33-.49,6.49-.87s4.26-.84,6.41-1.42a49.18,49.18,0,0,0,6.56-2.21,29.12,29.12,0,0,0,3.5-1.74c-10.77,5.25-16.17-1.39-16.17-1.39h-1.9l-5.17-1.21-6.76,2.92,2.1,4.24A6.51,6.51,0,0,0,253.68,200Z" style="opacity:0.2"></path><path d="M265.16,406.24a43,43,0,0,0,1.53-11.68s8.43-2.09,8.1.84c-.61,5.3,2.3,14,8,16.5,3.25,1.43.37,3.46-2.23,3.48-4.13,0-4.32-.65-7.46-2.53-2.68-1.6-3.74-2.23-6.26-2.2C264.73,410.68,264.67,408.62,265.16,406.24Z" style="fill:#263238"></path><path d="M258.1,231.11s15.17,59.4,19.1,86.1c4.12,28.05-1.17,77.45-1.22,79.48-3.73.84-7.24,1.23-10.18.35,0,0-10.59-42.8-13.58-74-24.21-55.76-19.07-78.77-19.07-78.77Z" style="fill:#FFBA40"></path><path d="M237.42,259.27c-.33,6.5.72,17.18,2,29,2.36,7.94,5.54,17.05,9.78,27.4C257.87,289.42,255.21,256.46,237.42,259.27Z" style="opacity:0.2"></path><path d="M234.63,412.79c-7.31-1.07-11.91-6.45-11-11.76.49-2.93-8.91-3.83-8.91-3.83.86,9.23-1.1,10.41-1.87,12.73s-.81,4.93,1.14,5.12c2.33.22,3.44-.16,6.34.15,3.38.37,7,.75,13.06,1.18C235.77,416.55,237.88,413.27,234.63,412.79Z" style="fill:#263238"></path><path d="M257.16,241.46s-4.25,42.72-12.7,74.54c-3.35,27.19-20.36,86.31-20.36,86.31a20.33,20.33,0,0,1-9.76-.76s-3.51-44.27,6-87.67c-.67-19.1-3.44-35.45-3-47.74.7-17.5,3.92-27.07,3.92-27.07Z" style="fill:#FFBA40"></path><path d="M262.44,199.55c1.12,3.31,5.36,11.56-1.44,16.23,1.27,2.84,2.34,22.11-.23,25.55-3.76,2.76-23.32,2.22-40.17,0-.71-7,2.37-21.39-2.33-43.89a9,9,0,0,1,7.88-10.75c1.42-.15,2.92-.26,4.46-.34a112.37,112.37,0,0,1,16.11,0c1.74.16,3.54.38,5.26.62C258.18,187.84,259.6,191.2,262.44,199.55Z" style="fill:#263238"></path><path d="M231.61,169c1.29,5.18,2.54,13.64.5,18.14,0,0,6,.27,14.23,5.8a3.23,3.23,0,0,0,5-3.18,3.6,3.6,0,0,0-2.52-2.56c-4.07-1-4.71-5.9-4.71-9.76Z" style="fill:#ffc3bd"></path><path d="M244.11,177.4,237,172.6a6.36,6.36,0,0,0,.64,3.15,13.49,13.49,0,0,0,6.88,6.17A21.79,21.79,0,0,1,244.11,177.4Z" style="opacity:0.2"></path><path d="M228.23,159.45c2,8.43,2.71,12,7.7,15.67,7.52,5.45,17.23,1.15,17.72-7.71.43-8-3-20.43-11.73-22.37S226.21,151,228.23,159.45Z" style="fill:#ffc3bd"></path><path d="M242.83,162.38c.13.69.59,1.19,1,1.11s.72-.71.6-1.4-.59-1.2-1-1.12S242.71,161.68,242.83,162.38Z" style="fill:#263238"></path><path d="M248.82,162.05a18.53,18.53,0,0,0,3.26,4,3.06,3.06,0,0,1-2.4.91Z" style="fill:#ed847e"></path><path d="M244.73,168.62a6.17,6.17,0,0,0-1.18.11.2.2,0,0,0-.17.24.21.21,0,0,0,.24.17,5.58,5.58,0,0,1,4.86,1.35.21.21,0,0,0,.29,0,.2.2,0,0,0,0-.29A5.69,5.69,0,0,0,244.73,168.62Z" style="fill:#263238"></path><path d="M227.62,167.3a5.57,5.57,0,0,0,3.41,3c1.93.53,2.88-1.58,2.33-3.72-.49-1.93-2.08-4.53-4-4.1S226.73,165.41,227.62,167.3Z" style="fill:#ffc3bd"></path><path d="M240.38,158.45a.4.4,0,0,0,.25-.21,3.26,3.26,0,0,1,2.35-1.85.42.42,0,0,0-.1-.83,4.13,4.13,0,0,0-3,2.31.41.41,0,0,0,.19.55A.39.39,0,0,0,240.38,158.45Z" style="fill:#263238"></path><path d="M253.33,157.19a.4.4,0,0,0,.19-.73,4.1,4.1,0,0,0-3.71-.74.42.42,0,0,0-.25.53.42.42,0,0,0,.53.25,3.26,3.26,0,0,1,2.93.61A.36.36,0,0,0,253.33,157.19Z" style="fill:#263238"></path><path d="M250.22,160.41a.27.27,0,0,0-.18.11.27.27,0,0,0,.07.39,2.78,2.78,0,0,0,2.55.41.27.27,0,0,0,.16-.36.28.28,0,0,0-.37-.16,2.24,2.24,0,0,1-2-.35A.26.26,0,0,0,250.22,160.41Z" style="fill:#263238"></path><path d="M243.24,161.05l1.58-.78S244.2,161.73,243.24,161.05Z" style="fill:#263238"></path><path d="M228.61,196.59l-10.22,1.47q.74,3.66,1.21,7C225.69,205.3,228.83,200.6,228.61,196.59Z" style="opacity:0.2"></path><path d="M223.84,186.86h-.19c-2.8-.14-6-.17-8.51-.41.35-.73.77-1.5,1.23-2.28.79-1.3,1.68-2.63,2.62-3.95,1.87-2.65,4-5.33,6-8l.09-.1a3.26,3.26,0,0,0-4.34-4.73,64.92,64.92,0,0,0-8.61,6.61,48.06,48.06,0,0,0-4,4,26.94,26.94,0,0,0-3.63,5.07,15,15,0,0,0-1.46,3.75,10.43,10.43,0,0,0-.24,2.74,9.11,9.11,0,0,0,.86,3.45,7.68,7.68,0,0,0,.66,1.14,8.27,8.27,0,0,0,.79,1,8.89,8.89,0,0,0,1.43,1.22,12.17,12.17,0,0,0,2.24,1.24,22.2,22.2,0,0,0,3.44,1.14,37.72,37.72,0,0,0,5.89,1,41,41,0,0,0,5.68.15,6.5,6.5,0,0,0,0-13Z" style="fill:#263238"></path><path d="M247.44,193.15a8,8,0,0,0,4.9-2.65s1.63,6.2-5,3.73A.56.56,0,0,1,247.44,193.15Z" style="opacity:0.2"></path><path d="M228.62,186.47a5,5,0,0,0,1.16-2.54,1.81,1.81,0,0,1,2.12-1.38c3,.58,9,1.28,13.5-1,6.25-3.16-.92,1.84,5.17,5.75,0,0,3.58,6.09-3,6.59S228.62,186.47,228.62,186.47Z" style="fill:#263238"></path><path d="M227.88,162.13s1.89,6.08,7.89-3.16c0,0,4.85-.81,8.55-10.34,0,0-1.55,5.6.2,6s3.48-8,3.48-8a12.88,12.88,0,0,0-13.33-2.38C226.52,147.13,225.48,157.29,227.88,162.13Z" style="fill:#263238"></path><path d="M219.87,168.17l-.27-5.85,9.5,1.44s-.87,5.7-4.09,8.84l-1.19-.43A6.31,6.31,0,0,1,219.87,168.17Z" style="fill:#ffc3bd"></path><path d="M224.37,158l3.22.93a2.78,2.78,0,0,1,1.91,3.42l-.4,1.44-9.5-1.44,1.53-2.95A2.78,2.78,0,0,1,224.37,158Z" style="fill:#ffc3bd"></path></g></svg>
