<svg width="580" height="150" viewBox="0 0 580 150" fill="none" xmlns="http://www.w3.org/2000/svg">
<rect width="580" height="150" fill="white"/>
<path d="M139.6 103V51.48H154.64V103H139.6ZM161.866 103V65.08H175.946L176.346 67.96C177.786 67 179.679 66.1467 182.026 65.4C184.426 64.6533 186.986 64.28 189.706 64.28C194.452 64.28 197.919 65.4533 200.106 67.8C202.292 70.1467 203.386 73.7733 203.386 78.68V103H188.346V80.2C188.346 78.4933 187.972 77.2667 187.226 76.52C186.479 75.7733 185.172 75.4 183.306 75.4C182.186 75.4 181.012 75.6667 179.786 76.2C178.612 76.7333 177.652 77.3733 176.906 78.12V103H161.866ZM212.227 103V76.2H207.347V65.08H212.227V62.6C212.227 58.3333 213.454 54.8133 215.907 52.04C218.36 49.2133 222.04 47.8 226.947 47.8C229.027 47.8 230.867 47.96 232.467 48.28C234.12 48.6 235.667 49.0533 237.107 49.64V59.4C236.307 59.1333 235.507 58.92 234.707 58.76C233.96 58.6 233.16 58.52 232.307 58.52C230.387 58.52 229.054 58.8667 228.307 59.56C227.614 60.2533 227.267 61.3733 227.267 62.92V65.08H236.227L235.587 76.2H227.267V103H212.227ZM259.386 103.8C254.96 103.8 251.04 103.08 247.626 101.64C244.266 100.147 241.626 97.9333 239.706 95C237.84 92.0667 236.906 88.44 236.906 84.12C236.906 78.0933 238.613 73.2933 242.026 69.72C245.44 66.0933 250.533 64.28 257.306 64.28C263.493 64.28 268.32 65.8533 271.786 69C275.306 72.1467 277.066 76.44 277.066 81.88V88.52H250.746C251.44 90.5467 252.8 91.9867 254.826 92.84C256.853 93.6933 259.6 94.12 263.066 94.12C265.253 94.12 267.44 93.9333 269.626 93.56C271.866 93.1333 273.653 92.6533 274.986 92.12V101.16C271.253 102.92 266.053 103.8 259.386 103.8ZM250.746 80.36H264.106V79C264.106 77.5067 263.626 76.28 262.666 75.32C261.76 74.36 260.133 73.88 257.786 73.88C255.173 73.88 253.333 74.44 252.266 75.56C251.253 76.6267 250.746 78.2267 250.746 80.36ZM303.367 103.8C296.487 103.8 291.047 102.173 287.047 98.92C283.047 95.6133 281.047 90.6533 281.047 84.04C281.047 79.56 281.98 75.8533 283.847 72.92C285.714 69.9867 288.327 67.8267 291.687 66.44C295.047 65 298.967 64.28 303.447 64.28C306.274 64.28 308.807 64.4933 311.047 64.92C313.287 65.2933 315.42 65.96 317.447 66.92V77.48C314.3 75.9867 310.727 75.24 306.727 75.24C303.314 75.24 300.727 75.88 298.967 77.16C297.26 78.44 296.407 80.7333 296.407 84.04C296.407 87.1333 297.234 89.3733 298.887 90.76C300.54 92.1467 303.154 92.84 306.727 92.84C308.647 92.84 310.514 92.6267 312.327 92.2C314.14 91.72 315.874 91.0533 317.527 90.2V101.24C315.5 102.147 313.314 102.787 310.967 103.16C308.674 103.587 306.14 103.8 303.367 103.8ZM339.356 103.8C334.289 103.8 330.609 102.52 328.316 99.96C326.022 97.4 324.876 93.9333 324.876 89.56V76.2H319.916V65.08H324.876V57.32L339.916 53.72V65.08H348.636L348.076 76.2H339.916V88.44C339.916 90.04 340.316 91.1867 341.116 91.88C341.916 92.52 343.142 92.84 344.796 92.84C346.342 92.84 347.916 92.5733 349.516 92.04V102.04C346.689 103.213 343.302 103.8 339.356 103.8ZM374.066 103.8C366.493 103.8 360.893 102.12 357.266 98.76C353.693 95.4 351.906 90.4933 351.906 84.04C351.906 77.64 353.72 72.76 357.346 69.4C360.973 65.9867 366.546 64.28 374.066 64.28C381.64 64.28 387.24 65.9867 390.866 69.4C394.546 72.76 396.386 77.64 396.386 84.04C396.386 90.4933 394.573 95.4 390.946 98.76C387.32 102.12 381.693 103.8 374.066 103.8ZM374.066 92.84C376.52 92.84 378.28 92.1467 379.346 90.76C380.466 89.3733 381.026 87.1333 381.026 84.04C381.026 81 380.466 78.7867 379.346 77.4C378.28 75.96 376.52 75.24 374.066 75.24C371.666 75.24 369.933 75.96 368.866 77.4C367.8 78.7867 367.266 81 367.266 84.04C367.266 87.1333 367.8 89.3733 368.866 90.76C369.933 92.1467 371.666 92.84 374.066 92.84Z" fill="black"/>
<path d="M402.022 103V51.48H428.582C432.795 51.48 436.262 52.3333 438.982 54.04C441.755 55.6933 443.809 57.96 445.142 60.84C446.475 63.72 447.142 66.92 447.142 70.44C447.142 74.0667 446.369 77.2933 444.822 80.12C443.275 82.9467 441.089 85.16 438.262 86.76C435.435 88.36 432.102 89.16 428.262 89.16H417.062V103H402.022ZM417.062 77.64H424.822C427.169 77.64 428.902 76.9733 430.022 75.64C431.195 74.3067 431.782 72.5733 431.782 70.44C431.782 68.1467 431.249 66.3333 430.182 65C429.115 63.6667 427.462 63 425.222 63H417.062V77.64ZM451.163 103V65.08H465.643L466.043 68.12C467.589 67.2133 469.563 66.3867 471.963 65.64C474.363 64.8933 476.789 64.44 479.243 64.28V75.48C477.856 75.5867 476.336 75.7733 474.683 76.04C473.083 76.3067 471.509 76.6533 469.963 77.08C468.469 77.4533 467.216 77.88 466.203 78.36V103H451.163ZM502.824 103.8C498.397 103.8 494.477 103.08 491.064 101.64C487.704 100.147 485.064 97.9333 483.144 95C481.277 92.0667 480.344 88.44 480.344 84.12C480.344 78.0933 482.05 73.2933 485.464 69.72C488.877 66.0933 493.97 64.28 500.744 64.28C506.93 64.28 511.757 65.8533 515.224 69C518.744 72.1467 520.504 76.44 520.504 81.88V88.52H494.184C494.877 90.5467 496.237 91.9867 498.264 92.84C500.29 93.6933 503.037 94.12 506.504 94.12C508.69 94.12 510.877 93.9333 513.064 93.56C515.304 93.1333 517.09 92.6533 518.424 92.12V101.16C514.69 102.92 509.49 103.8 502.824 103.8ZM494.184 80.36H507.544V79C507.544 77.5067 507.064 76.28 506.104 75.32C505.197 74.36 503.57 73.88 501.224 73.88C498.61 73.88 496.77 74.44 495.704 75.56C494.69 76.6267 494.184 78.2267 494.184 80.36ZM535.069 103L520.109 65.08H535.789L542.989 87.32L550.189 65.08H565.869L550.909 103H535.069Z" fill="#DE8A0C"/>
<g clip-path="url(#clip0_1_2)">
<path d="M65.1505 70.7218C65.458 70.5869 65.7359 70.3922 65.9682 70.149C66.2006 69.9057 66.3829 69.6187 66.5045 69.3044C66.6262 68.9902 66.685 68.6548 66.6773 68.3176C66.6697 67.9805 66.5959 67.6481 66.4601 67.3397L65.8851 66.0274C66.4692 65.8478 67.0623 65.6992 67.6619 65.5822C69.4061 65.2838 71.063 64.6007 72.5134 63.5819L73.9509 64.8827C74.1989 65.1097 74.4889 65.2854 74.8044 65.3997C75.1198 65.514 75.4546 65.5647 75.7896 65.549C76.1246 65.5332 76.4532 65.4512 76.7567 65.3078C77.0602 65.1643 77.3326 64.9622 77.5583 64.7129C77.7841 64.4636 77.9588 64.172 78.0725 63.8548C78.1862 63.5376 78.2367 63.201 78.221 62.8642C78.2053 62.5274 78.1238 62.197 77.9811 61.8919C77.8384 61.5867 77.6374 61.3129 77.3894 61.0859L75.9922 59.8198C77.2418 57.7239 77.826 55.2947 77.6669 52.8563L79.3703 52.3489C80.0184 52.1544 80.5631 51.709 80.8846 51.1106C81.2061 50.5123 81.278 49.8101 81.0845 49.1584C80.891 48.5068 80.448 47.9591 79.8529 47.6359C79.2578 47.3126 78.5594 47.2403 77.9112 47.4349L76.2811 47.9205C75.1084 45.7045 73.2814 43.9084 71.0515 42.7795L71.4597 41.2114C71.63 40.5507 71.5322 39.8491 71.1879 39.261C70.8437 38.6728 70.2811 38.2462 69.624 38.075C68.967 37.9039 68.2692 38.0022 67.6842 38.3483C67.0992 38.6944 66.6749 39.2601 66.5047 39.9207L66.0993 41.4788C65.2939 41.4501 64.4877 41.5034 63.6929 41.6377C62.057 41.9022 60.5002 42.3676 58.9334 42.8258L58.4475 41.4585C58.3353 41.14 58.1617 40.8469 57.9368 40.5958C57.7119 40.3448 57.44 40.1407 57.1367 39.9953C56.5241 39.7016 55.8205 39.6646 55.1808 39.8925C54.541 40.1204 54.0175 40.5945 53.7254 41.2104C53.4333 41.8264 53.3966 42.5338 53.6232 43.177L54.1249 44.5934C51.9251 45.5424 49.8116 46.6822 47.8085 48L46.9 46.7816C46.4913 46.2372 45.8854 45.8772 45.214 45.7797C44.5426 45.6823 43.8601 45.8554 43.3149 46.2613C43.0455 46.462 42.8182 46.7144 42.6461 47.0039C42.4741 47.2933 42.3607 47.6141 42.3124 47.9478C42.2642 48.2815 42.2821 48.6215 42.3651 48.9482C42.4481 49.2749 42.5945 49.5819 42.796 49.8514L43.7232 51.0959C41.9046 52.6485 40.2236 54.357 38.6991 56.2022L37.4312 55.2743C36.8828 54.8723 36.1983 54.7053 35.5276 54.8099C34.857 54.9145 34.2549 55.2821 33.8533 55.8321C33.6549 56.1036 33.5118 56.4118 33.4324 56.7391C33.353 57.0663 33.3388 57.4061 33.3907 57.739C33.4425 58.0718 33.5594 58.3909 33.7345 58.6781C33.9096 58.9653 34.1396 59.2148 34.411 59.4122L35.6875 60.3473C34.4052 62.3628 33.299 64.4862 32.3813 66.6937L30.8748 66.1748C30.5584 66.0648 30.2236 66.0186 29.8894 66.0387C29.5552 66.0588 29.2283 66.1449 28.9272 66.2921C28.6261 66.4392 28.3568 66.6446 28.1347 66.8964C27.9126 67.1482 27.7419 67.4415 27.6325 67.7596C27.5231 68.0777 27.4771 68.4144 27.4971 68.7503C27.5171 69.0863 27.6028 69.4151 27.7491 69.7178C27.8955 70.0205 28.0997 70.2912 28.3502 70.5146C28.6006 70.7379 28.8923 70.9095 29.2087 71.0195L30.6965 71.5311C30.2955 72.9764 29.8642 74.3986 29.6155 75.8989C29.4719 76.8067 29.4324 77.7281 29.4977 78.645L27.833 79.1407C27.5121 79.2368 27.2132 79.3956 26.9533 79.6079C26.6934 79.8202 26.4776 80.0819 26.3183 80.378C26.159 80.6741 26.0593 80.9989 26.0248 81.3338C25.9903 81.6687 26.0218 82.0071 26.1174 82.3298C26.213 82.6524 26.3709 82.953 26.582 83.2143C26.7932 83.4756 27.0535 83.6926 27.348 83.8528C27.6425 84.0129 27.9655 84.1132 28.2986 84.1479C28.6317 84.1825 28.9683 84.1509 29.2892 84.0548L30.9093 83.5735C32.0819 85.785 33.9102 87.5748 36.1404 88.6942L35.7264 90.2927C35.5689 90.9492 35.6744 91.6417 36.02 92.2207C36.3656 92.7997 36.9238 93.219 37.574 93.3882C38.2243 93.5573 38.9146 93.4627 39.4961 93.1249C40.0777 92.787 40.5039 92.2329 40.6829 91.582L41.0954 89.9921C41.2392 89.9921 41.393 90.0297 41.541 90.0297C43.8761 90.0179 46.1569 89.3206 48.1032 88.0236L49.338 89.2955C49.8089 89.7854 50.454 90.0671 51.1315 90.0788C51.8089 90.0904 52.4632 89.831 52.9505 89.3576C53.4377 88.8842 53.718 88.2356 53.7296 87.5545C53.7411 86.8733 53.4831 86.2154 53.0123 85.7255L51.6984 84.3713C52.5715 83.008 53.1621 81.4817 53.4349 79.8836C53.5701 79.1237 53.7559 78.3738 53.9912 77.639L55.285 78.2489C55.8967 78.5393 56.5981 78.5735 57.2348 78.3439C57.8716 78.1143 58.3916 77.6398 58.6804 77.0248C58.9692 76.4097 59.0031 75.7045 58.7748 75.0643C58.5464 74.4241 58.0745 73.9013 57.4628 73.6109L56.1978 73.0169C56.2941 72.8724 56.3703 72.7163 56.4709 72.5761C56.8247 72.1036 57.2023 71.6497 57.6022 71.2161C58.1232 70.6298 58.6827 70.0794 59.2769 69.5684C59.733 69.1666 60.21 68.7893 60.7058 68.4382C60.8668 68.3269 61.0393 68.2329 61.2046 68.1274L61.7681 69.4065C61.9704 69.8621 62.2996 70.249 62.7159 70.5203C63.1323 70.7917 63.6179 70.936 64.1141 70.9357C64.4705 70.9363 64.8232 70.8635 65.1505 70.7218V70.7218ZM44.4002 74.9999C43.4904 74.9999 42.6011 74.7286 41.8446 74.2204C41.0881 73.7122 40.4986 72.9899 40.1504 72.1448C39.8022 71.2997 39.7111 70.3698 39.8886 69.4726C40.0661 68.5754 40.5042 67.7513 41.1475 67.1045C41.7909 66.4577 42.6105 66.0172 43.5028 65.8388C44.3951 65.6603 45.32 65.7519 46.1606 66.1019C47.0011 66.452 47.7195 67.0448 48.225 67.8054C48.7304 68.566 49.0002 69.4601 49.0002 70.3749C49.0002 71.6015 48.5156 72.7779 47.6529 73.6453C46.7903 74.5126 45.6202 74.9999 44.4002 74.9999ZM55.9002 61.1249C55.4453 61.1249 55.0007 60.9893 54.6224 60.7352C54.2442 60.4811 53.9494 60.1199 53.7753 59.6973C53.6012 59.2748 53.5557 58.8098 53.6444 58.3612C53.7332 57.9127 53.9522 57.5006 54.2739 57.1772C54.5956 56.8538 55.0054 56.6335 55.4515 56.5443C55.8977 56.4551 56.3601 56.5009 56.7804 56.6759C57.2007 56.8509 57.5599 57.1473 57.8126 57.5276C58.0653 57.9079 58.2002 58.355 58.2002 58.8124C58.2002 59.4257 57.9579 60.0139 57.5266 60.4476C57.0952 60.8812 56.5102 61.1249 55.9002 61.1249ZM117.894 67.6722C117.736 67.1417 117.412 66.6767 116.97 66.3462C116.528 66.0158 115.992 65.8375 115.441 65.8381C115.194 65.8375 114.948 65.8736 114.711 65.945L113.091 66.4263C111.918 64.2153 110.09 62.4258 107.86 61.3056L108.274 59.707C108.429 59.0515 108.321 58.3613 107.975 57.7845C107.629 57.2077 107.072 56.7902 106.423 56.6217C105.775 56.4531 105.086 56.547 104.506 56.883C103.925 57.2191 103.498 57.7706 103.318 58.4193L102.905 60.0091C102.761 60.0091 102.607 59.9715 102.459 59.9715C100.124 59.9832 97.8432 60.681 95.8972 61.9791L94.6624 60.7057C94.1916 60.2159 93.5465 59.9341 92.869 59.9224C92.1915 59.9108 91.5372 60.1702 91.05 60.6436C90.5628 61.117 90.2825 61.7656 90.2709 62.4468C90.2593 63.1279 90.5173 63.7858 90.9882 64.2757L92.3021 65.6299C91.4283 66.9934 90.8376 68.5203 90.5655 70.1191C90.4302 70.8784 90.2444 71.6278 90.0092 72.3622L88.7155 71.7523C88.1038 71.4619 87.4024 71.4278 86.7656 71.6573C86.1289 71.8869 85.6089 72.3614 85.3201 72.9764C85.0313 73.5915 84.9974 74.2967 85.2257 74.9369C85.454 75.5771 85.926 76.0999 86.5377 76.3903L87.8027 76.9843C87.7064 77.1288 87.6302 77.2849 87.531 77.4251C87.1746 77.9011 86.7936 78.358 86.3896 78.7938C85.8728 79.377 85.3172 79.9241 84.7264 80.4314C84.2672 80.8335 83.7874 81.2113 83.2889 81.5631C83.1279 81.6743 82.9554 81.7683 82.7901 81.8738L82.2266 80.5947C82.0244 80.1391 81.6951 79.7523 81.2788 79.4809C80.8624 79.2095 80.3768 79.0652 79.8806 79.0656C79.5255 79.0664 79.1743 79.1402 78.8485 79.2823C78.5417 79.4174 78.2645 79.612 78.0326 79.855C77.8008 80.0979 77.6189 80.3845 77.4973 80.6983C77.3758 81.0121 77.3171 81.3468 77.3245 81.6835C77.3318 82.0201 77.4052 82.352 77.5404 82.66L78.1154 83.9724C77.5315 84.1526 76.9384 84.3012 76.3386 84.4175C74.5926 84.7181 72.9347 85.4043 71.4842 86.4265L70.0467 85.1257C69.7997 84.8928 69.509 84.7115 69.1917 84.5925C68.8744 84.4735 68.5367 84.4191 68.1982 84.4325C67.8598 84.4459 67.5274 84.5269 67.2204 84.6707C66.9134 84.8145 66.6378 85.0182 66.4099 85.27C66.1819 85.5219 66.006 85.8168 65.8924 86.1376C65.7788 86.4584 65.7299 86.7987 65.7483 87.1388C65.7668 87.4788 65.8523 87.8117 65.9999 88.1182C66.1475 88.4247 66.3543 88.6986 66.6082 88.924L68.0054 90.1887C66.7558 92.2846 66.1716 94.7138 66.3307 97.1522L64.6259 97.6595C64.3049 97.7559 64.0061 97.9149 63.7463 98.1275C63.4865 98.3401 63.2709 98.602 63.1118 98.8983C62.9526 99.1947 62.8531 99.5196 62.8189 99.8546C62.7847 100.19 62.8165 100.528 62.9124 100.851C63.0083 101.173 63.1664 101.474 63.3778 101.735C63.5892 101.996 63.8498 102.213 64.1445 102.373C64.4392 102.533 64.7624 102.633 65.0956 102.668C65.4288 102.702 65.7654 102.67 66.0864 102.574L67.7165 102.088C68.8901 104.305 70.7187 106.102 72.9504 107.23L72.5422 108.799C72.3719 109.459 72.4697 110.161 72.814 110.749C73.1582 111.337 73.7208 111.764 74.3779 111.935C75.0349 112.106 75.7327 112.008 76.3177 111.662C76.9027 111.315 77.327 110.75 77.4972 110.089L77.9026 108.531C78.708 108.56 79.5142 108.506 80.309 108.372C81.9434 108.099 83.506 107.639 85.0671 107.181L85.553 108.548C85.7796 109.192 86.2511 109.718 86.8638 110.012C87.4764 110.305 88.18 110.342 88.8197 110.114C89.4594 109.887 89.9829 109.413 90.275 108.797C90.5671 108.181 90.6039 107.473 90.3772 106.83L89.8756 105.415C92.0752 104.465 94.1886 103.325 96.1919 102.007L97.1004 103.225C97.5086 103.77 98.1144 104.13 98.7857 104.228C99.457 104.325 100.139 104.152 100.684 103.746C100.955 103.545 101.184 103.293 101.357 103.003C101.53 102.713 101.644 102.391 101.692 102.056C101.741 101.722 101.722 101.381 101.639 101.053C101.555 100.726 101.407 100.418 101.204 100.148L100.277 98.9039C102.096 97.3504 103.777 95.6414 105.301 93.7962L106.569 94.7241C106.839 94.9347 107.147 95.0889 107.477 95.1775C107.807 95.2661 108.151 95.2874 108.489 95.24C108.827 95.1926 109.152 95.0776 109.445 94.9017C109.738 94.7258 109.993 94.4926 110.195 94.2159C110.397 93.9392 110.541 93.6246 110.62 93.2907C110.699 92.9569 110.711 92.6105 110.654 92.2721C110.597 91.9337 110.474 91.6101 110.291 91.3206C110.108 91.031 109.869 90.7812 109.588 90.5861L108.311 89.6525C109.594 87.6363 110.7 85.5125 111.618 83.3047L113.124 83.8235C113.441 83.9335 113.775 83.9798 114.11 83.9597C114.444 83.9395 114.771 83.8534 115.072 83.7063C115.373 83.5591 115.642 83.3538 115.864 83.102C116.086 82.8502 116.257 82.5568 116.367 82.2387C116.476 81.9206 116.522 81.584 116.502 81.248C116.482 80.912 116.396 80.5833 116.25 80.2806C116.104 79.9779 115.899 79.7071 115.649 79.4837C115.398 79.2604 115.107 79.0888 114.79 78.9788L113.304 78.4686C113.705 77.0233 114.136 75.6011 114.385 74.1023C114.529 73.1921 114.568 72.2683 114.503 71.349L116.167 70.8533C116.489 70.7589 116.789 70.6016 117.049 70.3905C117.31 70.1794 117.527 69.9186 117.687 69.6231C117.848 69.3275 117.949 69.0031 117.984 68.6683C118.019 68.3335 117.989 67.995 117.894 67.6722V67.6722ZM85.8002 98.1249C84.8904 98.1249 84.0011 97.8536 83.2446 97.3454C82.4881 96.8372 81.8986 96.1149 81.5504 95.2698C81.2022 94.4247 81.1111 93.4948 81.2886 92.5976C81.4661 91.7004 81.9042 90.8763 82.5475 90.2295C83.1909 89.5827 84.0105 89.1422 84.9028 88.9638C85.7951 88.7853 86.72 88.8769 87.5606 89.2269C88.4011 89.577 89.1195 90.1698 89.625 90.9304C90.1305 91.691 90.4002 92.5851 90.4002 93.4999C90.4002 94.7265 89.9156 95.9029 89.0529 96.7703C88.1903 97.6376 87.0202 98.1249 85.8002 98.1249Z" fill="#DE8A0C"/>
</g>
<path d="M72.5 18.4167C40.99 18.4167 15.4167 43.99 15.4167 75.5C15.4167 107.01 40.99 132.583 72.5 132.583C104.01 132.583 129.583 107.01 129.583 75.5C129.583 43.99 104.01 18.4167 72.5 18.4167ZM26.8333 75.5C26.8333 50.2692 47.2692 29.8333 72.5 29.8333C83.0604 29.8333 92.7646 33.4296 100.471 39.4804L36.4804 103.471C30.2113 95.4971 26.8127 85.6431 26.8333 75.5V75.5ZM72.5 121.167C61.9396 121.167 52.2354 117.57 44.5292 111.52L108.52 47.5292C114.789 55.5029 118.187 65.3569 118.167 75.5C118.167 100.731 97.7308 121.167 72.5 121.167Z" fill="#F24E1E"/>
<defs>
<clipPath id="clip0_1_2">
<rect width="92" height="74" fill="white" transform="translate(26 38)"/>
</clipPath>
</defs>
</svg>
