<svg xmlns="http://www.w3.org/2000/svg" viewBox="0 0 500 500"><g id="freepik--Floor--inject-54"><path id="freepik--floor--inject-54" d="M94.41,260.16c-85.93,49.61-85.92,130,0,179.65s225.24,49.61,311.17,0,85.92-130,0-179.65S180.34,210.55,94.41,260.16Z" style="fill:#fafafa"></path></g><g id="freepik--Character--inject-54"><g id="freepik--character--inject-54"><g id="freepik--Bottom--inject-54"><path d="M205.8,382.68c1.34-15.8.09-22.45,1.7-47.12h0c.19-6.33.5-13.11,1-19.13,1.68-20.25,4.9-27.15,5.24-31.05,0,0,0-24.3,1.83-68.64.87-20.85,7-27.1,12-38.12l61.25.68c3.24,27.61,3.05,78.82,2.53,107-.27,14.35-6.86,85.66-7,87.43-.48,6.26,0,8.74,2.47,11.4,5.11,5.58,12.54,10.92,19,15.8-1,2.46-8.76,2.28-12.6.36A98.31,98.31,0,0,1,278.93,392c-5.28-4-12.05-7.2-12.06-13.17a6.42,6.42,0,0,0-.17-1.07c-.06-3.49-7.76-49.52-8.3-61.45-.46-10.26,1-27.64,1-27.64l-5.47-35.35s-3.47,18.39-7.82,35.87c-3.55,14.23-9.79,33-13.79,50.52h0c-3.89,20.18-9.42,34.52-10.47,44.63-.31,2.42-3.34,26.11-4.54,31.53s-13.1,5.43-13.76-3.92C203.12,405.71,205.55,385.65,205.8,382.68Z" style="fill:#c8856a"></path><path d="M316.75,407.34c.32,0,.82,3.61-1,5.15-2.07,1.77-8.14,4.68-16.15,3.64s-12.35-3.5-15.55-6.17-7.7-6.44-11.32-7.24c-3.37-.74-7-2.26-8.1-3.3s-.92-5.63-.92-5.63Z" style="fill:#263238"></path><path d="M266.55,376.06s-.6,0-.81,1.09c-.25,1.27-.52,5-1.05,7-.74,2.89-1.24,8.82-.8,11.18s5.93,4,9.43,5.33a44.7,44.7,0,0,1,11.36,7.15c3.76,3.09,11.68,6.19,16.9,6.27,8,.12,13.14-2,14.74-4.88,2-3.53.43-5.57-8.73-9.8-1.73-.8-7.82-4.39-9.9-5.69a47.59,47.59,0,0,1-6.23-4.62,38.23,38.23,0,0,1-2.79-2.76,12.59,12.59,0,0,1-2.32-2.94c-.1-.25-.17-.53-.26-.78a13.23,13.23,0,0,1-.6-2.13c-.15-.76-.24-1.87-1-2.32a6.17,6.17,0,0,0-3.28-.39,24.79,24.79,0,0,0-3.53.5c-1.35.3-2.91.42-3.71,1.68a6.68,6.68,0,0,0-.76,3.3c0,.53,0,1.07,0,1.6,0,.23.1.64-.22.54s-.65-.89-.76-1.16c-.25-.59-.42-1.23-.69-1.82a10.1,10.1,0,0,0-1.14-1.93,9.6,9.6,0,0,0-1.45-1.47,14,14,0,0,1-1.57-1A3.65,3.65,0,0,1,266.55,376.06Z" style="fill:#37474f"></path><path d="M309.07,400.14c-11.55.78-15.19,7.87-15.68,12.26a27.44,27.44,0,0,0,8.19,1.72c8,.12,13.47-2,15.06-4.88C318.51,405.92,317.25,403.23,309.07,400.14Z" style="fill:#fafafa"></path><path d="M291.76,400.25a.53.53,0,0,1-.35-.13.56.56,0,0,1-.08-.79,13.59,13.59,0,0,1,10.44-4.09.56.56,0,0,1,.5.62.56.56,0,0,1-.62.5A12.61,12.61,0,0,0,292.2,400,.55.55,0,0,1,291.76,400.25Z" style="fill:#f0f0f0"></path><path d="M286.8,397.36a.58.58,0,0,1-.36-.12.56.56,0,0,1-.08-.79,13.56,13.56,0,0,1,10.44-4.09.56.56,0,1,1-.12,1.11,12.57,12.57,0,0,0-9.45,3.69A.57.57,0,0,1,286.8,397.36Z" style="fill:#f0f0f0"></path><path d="M282.19,394.07a.53.53,0,0,1-.35-.13.56.56,0,0,1-.08-.79,13.61,13.61,0,0,1,10.44-4.09.57.57,0,0,1,.5.62.56.56,0,0,1-.62.5,12.62,12.62,0,0,0-9.45,3.68A.55.55,0,0,1,282.19,394.07Z" style="fill:#f0f0f0"></path><path d="M277.68,390.78a.54.54,0,0,1-.35-.13.56.56,0,0,1-.09-.78c2.22-2.78,7.22-4.61,11.41-4.15a.55.55,0,0,1,.49.62.56.56,0,0,1-.62.5c-3.77-.41-8.43,1.26-10.39,3.72A.58.58,0,0,1,277.68,390.78Z" style="fill:#f0f0f0"></path><path d="M221,420.14c-.38,5.41-1.27,9-3.24,12.15s-5.62,4.11-9.3,3.14-8.38-3.51-9.38-8.2-1.58-7.89-.68-12.9Z" style="fill:#263238"></path><path d="M206,380.75c-1.52.1-2,7.37-3,14.64-1,7.79-3.41,11-4.33,17.38-1,7.3.14,10.58,2.66,15s11.58,8.89,16.15,2.61c3.72-5.12,3.94-10.84,3.7-18.15a162.58,162.58,0,0,1,.7-18.49c.37-5.47,1.65-11,.33-11.6-.11.8-.22,1.82-.33,2.61a13,13,0,0,1-.53,2.91c-.16.41-.5.83-.63.17a4.5,4.5,0,0,1,0-1.37c.25-2-.77-2.18-1.32-2.35a67.78,67.78,0,0,0-7-1.07c-1.16-.09-5.17-.31-5.7.34a4.61,4.61,0,0,0-.53,2.11c-.15,1.1-.41,1.9-.44,1.56-.06-.79.11-2.84.14-3.33s.11-1.12.12-1.6S205.91,381.21,206,380.75Z" style="fill:#37474f"></path><path d="M198.13,417a18.21,18.21,0,0,0,2.71,11.14c2.53,4.45,12.32,8.91,16.89,2.63,2.27-3.12,2.92-6.84,3.27-10.63C218.36,415.23,202.43,412.9,198.13,417Z" style="fill:#fafafa"></path><path d="M217.78,412.15l-.19,0c-.06,0-7.06-3-13.93-1.51a.57.57,0,0,1-.67-.43.55.55,0,0,1,.43-.66c7.26-1.59,14.4,1.46,14.67,1.59a.57.57,0,0,1,.26.75A.57.57,0,0,1,217.78,412.15Z" style="fill:#f0f0f0"></path><path d="M204.07,405.15a.58.58,0,0,1-.48-.38.57.57,0,0,1,.36-.71c6.85-2.22,14.37,1.31,14.65,1.46a.55.55,0,0,1,.23.76.57.57,0,0,1-.76.23c-.06,0-7.4-3.46-13.77-1.39A.47.47,0,0,1,204.07,405.15Z" style="fill:#f0f0f0"></path><path d="M204.37,400a.56.56,0,0,1-.13-1.08c7.53-2.59,14.67,1.26,14.93,1.42a.56.56,0,1,1-.59.95c-.06,0-7-3.72-14-1.31A.65.65,0,0,1,204.37,400Z" style="fill:#f0f0f0"></path><path d="M204.8,395a.56.56,0,0,1-.47-.37.57.57,0,0,1,.34-.72c7.06-2.53,14.74,1.41,15,1.59a.56.56,0,0,1,.2.76.57.57,0,0,1-.78.2c-.06,0-7.51-3.85-14.07-1.49A.54.54,0,0,1,204.8,395Z" style="fill:#ebebeb"></path><path d="M221.16,178.76c-7,12.33-7.3,22.44-8.43,59.31s-.21,40-.4,44.43-2.9,12.36-5.44,34.24a226.26,226.26,0,0,0-.54,42.52s1.54,3.54,10,4.39c7.76.78,11.64-2.08,11.64-2.08s11.54-37,14.64-50.21,11.24-49.22,11.24-49.22l4,27.09s-2.51,12.07-.37,31.31a284.58,284.58,0,0,0,5.6,33.23,37.21,37.21,0,0,0,12.54,2.37,20.82,20.82,0,0,0,10.86-2.91s6.77-51.35,7-73.13-1.45-74.2-3.25-100.36Z" style="fill:#37474f"></path><path d="M244.93,289.11s-3.29-4.84-11.48-5.92-12.52,3.31-12.52,3.31S236.18,285.07,244.93,289.11Zm-25,.6c10.56,2.2,15.39,1.83,20.24.93C240.21,290.64,225,288.55,220,289.71Z" style="fill:#c8856a"></path><path d="M293.29,285.78l.1-2.36c-7.06-1-18.34,1.13-21.38,2.83A104.45,104.45,0,0,1,293.29,285.78ZM277,289c4.72,1.32,16,2,16,2l.14-2.21S285.07,288.51,277,289Z" style="fill:#c8856a"></path><path d="M207.79,360.85a9,9,0,0,0,1.14.75c-1.74-34.45,3.18-48.67,6.21-61.82.29-1.26.57-2.46.82-3.6,2.29-10.28,1.49-16.43,1.66-33.36,0-5.1.1-10.37.21-16,.14-6.55.42-13.32,1-20,12.08-1.3,14.84-13.12,18.32-28.05.47-2,1-4.15,1.5-6.32l-1.07-.26c-.54,2.17-1,4.29-1.5,6.33-3.49,15-6,25.83-17.14,27.17,1.49-15.22,4.82-29.94,12.46-40.52l-.89-.64c-11.36,15.74-13.35,40.32-13.81,62.29-.11,5.6-.16,10.87-.21,16-.17,16.87.63,23-1.63,33.13-.26,1.14-.53,2.34-.82,3.6C211.05,312.64,206.15,326.75,207.79,360.85Zm53.48-137.13-7.45,38.42,4,27.09.4-26,5-25.91c.15,2.58.3,5.23.45,7.93,1.27,22.28,2,39.38.8,44.68-3.38,14.52-2.54,23.71-1,40.41.16,1.69.32,3.46.48,5.32.83,9.43,1.91,13.25,2.54,19.32.35.09.73.19,1.14.28-.63-6.06-1.74-10.07-2.58-19.7-.17-1.86-.33-3.63-.48-5.32-1.51-16.58-2.34-25.71,1-40.06,1.27-5.46.56-21.55-.77-45-.24-4.25-.48-8.37-.69-12.3l1.06-4.67c5.29-1.2,13.8-5.12,15.43-12.35C272.34,224.2,261.27,223.72,261.27,223.72Z" style="fill:#263238"></path></g><g id="freepik--Top--inject-54"><path d="M273.81,107.34c10.76,2.06,15.93,5.51,21.53,15s14,33.42,13.89,38.8H286.85Z" style="fill:#c8856a"></path><path d="M288.17,152.61c4.77-1.28,8.29-2.19,10.79-2.13-2-1.33-11,.21-11,.21Z" style="fill:#af6152"></path><path d="M273.28,106.65c7.62.6,13.16,2.72,18.24,8.94s5.52,8.63,8.21,15.43,4.52,11.33,4.52,11.33-5.12,9.17-21.75,7.79l-5.92-17.74Z" style="fill:#37474f"></path><path id="freepik--Chest--inject-54" d="M233.61,104.57s-9.64,2.54-19.26,6c0,0-10.55,4.27-4.79,35.28,1.46,7.82,4.42,19.2,5.23,28.87.46,5.49.1,18.73-.63,30,0,0,17.1,11.28,48.5,7.78,24.65-2.76,28.65-13.6,28.65-13.6s-1-27.76-3.05-46.1c-2.95-26.33-8.22-41.06-15-46.22l-14-1.5Z" style="fill:#455a64"></path><g id="freepik--Head--inject-54"><path d="M222.57,84.62a50.49,50.49,0,0,0,8.89,12.16,6.11,6.11,0,0,0,4.11,2l-2.39-9.34L231.35,83s4.13-6,3.5-10.79A19,19,0,0,0,233.44,67l31.69-5s1.06-8.58-4.48-13.89c-5.3-5.09-12-7.59-22.35-4.65-12.63,3.6-17.82,11.41-17.52,16.9h0A9.33,9.33,0,0,0,217,66.05C216.37,68.67,216.48,73.14,222.57,84.62Z" style="fill:#263238"></path><path d="M225.7,93.26a6.68,6.68,0,0,0,1,.35,6.48,6.48,0,0,0,2.8.23,5,5,0,0,0,2.1-1.2,7.49,7.49,0,0,0,1.74-2l.34,17.69c8.54,10.42,37.48,7.56,25.55-2.86l.35-6.39a28.44,28.44,0,0,0,4.08-1.36,11.44,11.44,0,0,0,7.46-10.23c.3-7.33-4.51-22.07-7.49-30a8.71,8.71,0,0,0-5.34-5.13c-5.71-1.39-9.6,3.37-16.09,7.8-2.68,1.84-9.73,4-11.82,3.51a9.55,9.55,0,0,1,3.18,5.5,13.59,13.59,0,0,1,.13,4.76,23,23,0,0,0-.65,4.27,3.3,3.3,0,0,1-.31,1.93,1.89,1.89,0,0,1-2.3.38,9.78,9.78,0,0,1-2-1.52,5.75,5.75,0,0,0-3-1.37,5.25,5.25,0,0,0-5,3.2,8.66,8.66,0,0,0-.06,6.22A10.15,10.15,0,0,0,225.7,93.26Z" style="fill:#c8856a"></path><path d="M259.59,99.06c-5.6,1.24-10.73,1.67-14.35,1s-7.58-4.51-9.56-8.77c.82,3.61,3.84,9.64,9.46,11.16s10.6.39,14.28-.36Z" style="fill:#af6152"></path><path d="M245,65.26l-3.57,3.87a2.79,2.79,0,0,1-.14-3.85A2.55,2.55,0,0,1,245,65.26Z" style="fill:#263238"></path><path d="M263.65,64l-5.3.23a2.53,2.53,0,0,1,2.41-2.8A2.82,2.82,0,0,1,263.65,64Z" style="fill:#263238"></path><path d="M244.39,73.27a2.14,2.14,0,1,0,1.41-2.7A2.15,2.15,0,0,0,244.39,73.27Z" style="fill:#263238"></path><path d="M259.67,68.63a2.14,2.14,0,1,0,1.41-2.71A2.15,2.15,0,0,0,259.67,68.63Z" style="fill:#263238"></path><path d="M252.41,68.15l4.68,13L264,76.55A32.23,32.23,0,0,0,252.41,68.15Z" style="fill:#af6152"></path><path d="M257.12,86.66l-.06-.06a.53.53,0,0,0-.3-.07,17.75,17.75,0,0,1-2.5,0,7.31,7.31,0,0,1-2.09-.58,13.58,13.58,0,0,0-1.78-1,.27.27,0,0,0-.34.25c.06.63,1,1.11,1.52,1.38a6,6,0,0,0,2,.62,8.84,8.84,0,0,0,2.24,0,8.47,8.47,0,0,0,1.12-.2C257.1,86.89,257.2,86.77,257.12,86.66Z" style="fill:#af6152"></path></g><path d="M229.5,182c1.09,0,2.17,0,3.25.06a80.6,80.6,0,0,0,8.37-.24c1.74-.15,3.47-.37,5.19-.68a31.28,31.28,0,0,0,4.63-1c3-1.07,5.93-2.29,8.84-3.51s6.7-1.41,9.74-1.67c7.15-.59,13.53-.57,20.63-1.65a43.71,43.71,0,0,0,12-3.6,15.65,15.65,0,0,0,6.07-5.3c1.9-3,.89-5-1.76-6.81-2.27-1.57-8.88-4.86-18.32-5-4.51,1.18-9.79,2.95-14.79,4.58-4.69,1.54-8.25,2.8-13,4a17.7,17.7,0,0,1-6.29.18c-2-.28-3.71-.9-5.63-1.21a45.36,45.36,0,0,0-7.42-1.11c-4.26,0-8.62,1.37-11.51,1.76s-2.7,2-.52,3.19a7.44,7.44,0,0,0,3.6.51c1.37,0,2.74-.1,4.11,0,.32,0,.95,0,1.12.31s-.27.74-.57.88c-1.71.79-3.61.57-5.44.56l-6,0c-.8,0-1.61,0-2.41,0-1.13.07-2.29.24-2.92,1.29a1.73,1.73,0,0,0-.29,1.05c0,.31.18.57-.17.8a2.32,2.32,0,0,1-.92.24,2.16,2.16,0,0,0-1.39,3.24,3.26,3.26,0,0,0,1.15,1,2,2,0,0,1,.62.44,2,2,0,0,1,.28.57,3.48,3.48,0,0,0,1,1.34,5.89,5.89,0,0,0,2.78,1.1c.84.15,1.69.25,2.54.34,1.15.13,2.3.31,3.46.46l1.49.17.75.08a2.4,2.4,0,0,1,.71.11c-.14.14-.72.08-.93.09l-1.07.07c-.68.05-1.36.12-2,.23a4.37,4.37,0,0,0-1.34.42,1.72,1.72,0,0,0-1,1.95,1,1,0,0,0,.77.53,7,7,0,0,0,.9.13C228.29,182,228.9,182,229.5,182Z" style="fill:#c8856a"></path><path d="M248.56,171.35a43.67,43.67,0,0,0,4.23-10.21c-1.48-.31-2.87-.74-4.37-1a45.36,45.36,0,0,0-7.42-1.11c-4.26,0-8.62,1.37-11.51,1.76s-2.7,2-.52,3.19a7.44,7.44,0,0,0,3.6.51c1.37,0,2.74-.1,4.11,0,.32,0,.95,0,1.12.31s-.27.74-.57.88c-1.71.79-3.61.57-5.44.56l-6,0c-.8,0-1.61,0-2.41,0-1.13.07-2.29.24-2.92,1.29a1.73,1.73,0,0,0-.29,1.05c0,.26.12.49-.06.69a3.59,3.59,0,0,1,1.09,1.07l1.92,3.29a18.17,18.17,0,0,1-4.83-.12,4.14,4.14,0,0,0,.55.38,2.23,2.23,0,0,1,.59.41,28.15,28.15,0,0,1,3.59,1,10.13,10.13,0,0,1,2.77,2.34l.26,0c1.15.13,2.3.31,3.46.46l1.49.17.75.08a2.4,2.4,0,0,1,.71.11c-.14.14-.72.08-.93.09l-1.07.07c-.68.05-1.36.12-2,.23a5.6,5.6,0,0,0-1,.27c3.38,2.61,8.1,3.85,12.06,2.05a12.05,12.05,0,0,0,1.46-.78C244.34,178.27,246.61,174.77,248.56,171.35Z" style="fill:#af6152"></path><path d="M235.51,180.87c-4-.35-7.57-.67-13.33-9.92-4.47-7.16-6.82-11.87-11.22-21.89s-7.67-17-7.26-23.38c.33-5.21,1.66-10.86,10.8-14.39,5.5,3.5,13.08,13.38,16.59,22.31s9.72,25.61,9.72,25.61Z" style="fill:#c8856a"></path><path d="M214.35,110.89c-9.52,3.89-13,11.1-10.35,21.8,2.95,12,11,28,11,28s5.38.25,12.15-4.13a25.39,25.39,0,0,0,9.31-11.16s-3.39-9.52-5.23-14.59C227.6,120.78,221.22,112.52,214.35,110.89Z" style="fill:#37474f"></path><path d="M225.86,161.17c.28-10.78,5.19-17.34,8.94-25.41s5.81-12.93,7.19-17.82,2.09-12,1.42-15.62a51.9,51.9,0,0,0-2.35-8.11c-.68-1.8.05-2,1.76-1.92s3.55.89,5.14,4,2,5,2.75,4.85,4.47-4.49,6.64-6.53,3-2.1,6.36-2.51a23.84,23.84,0,0,1,8.06.18c1.38.43,3.41,2.38,4.24,3,1.16.9-.8,2.55-3,1.77l-2.16-.77c.85.66.79,1.57.92,2.7a3.1,3.1,0,0,1-.67,2.11s.8.24,1.1,1.67a5.34,5.34,0,0,1-.1,2.59,1.23,1.23,0,0,1,1.24.65c.49.8,1.14,2.09-1.74,4.71s-5,4.38-7.48,6.43a19.57,19.57,0,0,0-4.28,4.5c-1.51,2.2-2,5.91-2.93,11.88-2.14,13.24-2.55,16.53-4.82,24.62-1.72,6.15-3.74,12.52-10.43,19.41-5.9,6.08-9.82,2.58-12.13-1.78A35.92,35.92,0,0,1,225.86,161.17Z" style="fill:#c8856a"></path><path d="M225.86,161.17c-.25-10,5.5-18.57,9.42-27.33a144.63,144.63,0,0,0,5.5-13.44A43.64,43.64,0,0,0,243,102.67,51.07,51.07,0,0,0,240.51,94c-1-2.9,3.16-2.34,4.66-1.49,2.84,1.63,3.65,5,5,7.7.11.23.36.67.46.61,2.91-2.29,5.12-5.57,8.24-7.72a8.05,8.05,0,0,1,3.57-1,33.73,33.73,0,0,1,7.31-.2c2.6,0,4.45,1.89,6.25,3.49-1.86-1.5-3.72-3.31-6.27-3.23a33.6,33.6,0,0,0-7.22.4,7.82,7.82,0,0,0-3.35,1c-3.11,2.22-5.17,5.59-8.23,7.94-1.23.52-1.79-1.84-2.24-2.6-1-2.07-1.87-4.5-3.94-5.64a5.15,5.15,0,0,0-3.22-.46c-.49.12-.26.54-.18.94,1.45,4,2.94,8.2,2.78,12.51,0,9.89-4,19.15-8.19,27.91s-9.91,17-10.09,27Z" style="fill:#af6152"></path><path d="M262.19,97.56c2.54-1.41,6-3.2,8.7-1.2a6.63,6.63,0,0,0-4.31.06c-1.29.37-3.09.85-4.39,1.14Z" style="fill:#af6152"></path><path d="M264.55,103a10.18,10.18,0,0,1,6.59-1.82,45.61,45.61,0,0,1-6.59,1.82Z" style="fill:#af6152"></path><path d="M266.4,108.27a40.29,40.29,0,0,1,5.74-2.84,9,9,0,0,1-5.74,2.84Z" style="fill:#af6152"></path></g></g></g></svg>